<svg xmlns="http://www.w3.org/2000/svg" viewBox="0 0 500 500"><g id="freepik--background-complete--inject-65"><rect x="208.14" y="128.03" width="105.42" height="148.51" transform="translate(-51.58 95.75) rotate(-18.96)" style="fill:#dbdbdb"></rect><path d="M241.41,149.09l0,0c2.06,5.95-.8,12.33-6.35,14.25l-22.35,7.73c-5.56,1.92-11.74-1.33-13.8-7.28l0,0c-2.06-5.95.79-12.36,6.34-14.28l22.35-7.73C233.16,139.85,239.35,143.13,241.41,149.09Z" style="fill:#c7c7c7"></path><path d="M250.62,175.86v0c2.06,6-.8,12.34-6.35,14.26l-22.35,7.73c-5.56,1.92-11.74-1.33-13.8-7.29v0c-2.06-5.95.78-12.36,6.34-14.28l22.34-7.73C242.36,166.63,248.56,169.91,250.62,175.86Z" style="fill:#c7c7c7"></path><path d="M259.82,202.64v0c2.06,6-.79,12.34-6.35,14.26l-22.35,7.73c-5.55,1.92-11.74-1.33-13.8-7.29v0c-2.06-6,.78-12.36,6.34-14.29L246,195.33C251.56,193.4,257.76,196.69,259.82,202.64Z" style="fill:#c7c7c7"></path><path d="M269,229.42v0c2.06,6-.79,12.34-6.35,14.26l-22.35,7.72c-5.55,1.93-11.74-1.32-13.8-7.28v0c-2.06-6,.78-12.36,6.34-14.29l22.35-7.72C260.76,220.18,267,223.46,269,229.42Z" style="fill:#c7c7c7"></path><path d="M278.22,256.2v0c2.06,6-.79,12.33-6.35,14.26l-22.34,7.72c-5.56,1.93-11.75-1.32-13.81-7.28v0c-2.06-6,.79-12.37,6.34-14.29l22.35-7.73C270,247,276.16,250.24,278.22,256.2Z" style="fill:#c7c7c7"></path><path d="M286,133.75v0c2.06,6-.79,12.33-6.35,14.26l-22.34,7.72c-5.56,1.93-11.75-1.32-13.81-7.28v0c-2.06-6,.78-12.37,6.34-14.29l22.35-7.73C277.79,124.51,284,127.79,286,133.75Z" style="fill:#c7c7c7"></path><path d="M295.24,160.53l0,0c2.06,5.95-.8,12.33-6.35,14.26l-22.35,7.72c-5.56,1.92-11.74-1.33-13.81-7.28v0c-2.06-6,.79-12.37,6.34-14.29l22.35-7.73C287,151.29,293.18,154.57,295.24,160.53Z" style="fill:#c7c7c7"></path><path d="M304.45,187.31v0c2.06,5.95-.8,12.33-6.35,14.25l-22.35,7.73C270.2,211.24,264,208,262,202v0c-2.06-6,.78-12.37,6.34-14.29L290.63,180C296.19,178.07,302.39,181.35,304.45,187.31Z" style="fill:#c7c7c7"></path><path d="M313.65,214.08v0c2.06,6-.79,12.34-6.35,14.26L285,236.1c-5.55,1.92-11.74-1.33-13.8-7.29v0c-2.06-5.95.78-12.36,6.34-14.28l22.35-7.73C305.39,204.85,311.59,208.13,313.65,214.08Z" style="fill:#c7c7c7"></path><path d="M322.85,240.86v0c2.06,6-.79,12.34-6.35,14.26l-22.35,7.73c-5.55,1.92-11.74-1.33-13.8-7.29v0c-2.06-5.95.78-12.36,6.34-14.28L309,233.55C314.59,231.63,320.79,234.91,322.85,240.86Z" style="fill:#c7c7c7"></path><path d="M239.48,149.76v0a9.67,9.67,0,0,1-6,12.3l-20.31,7a9.68,9.68,0,0,1-12.32-6v0a9.7,9.7,0,0,1,6-12.32l20.32-7A9.7,9.7,0,0,1,239.48,149.76Z" style="fill:#fff"></path><path d="M239.48,149.76v0a9.67,9.67,0,0,1-6,12.3l-10.16,3.52L217,147.29l10.17-3.52A9.7,9.7,0,0,1,239.48,149.76Z" style="fill:#ebebeb"></path><path d="M221.49,148.9l-.33-.94,6.59-2.26c3.63-1.25,7.9,0,8.78,2.57l-.94.32c-.7-2-4.49-3-7.51-2Z" style="fill:#fff"></path><path d="M210.06,189.91v0a9.69,9.69,0,0,1,6-12.32l20.3-7.06a9.67,9.67,0,0,1,12.33,5.93v0a9.7,9.7,0,0,1-6,12.34l-20.3,7.07A9.7,9.7,0,0,1,210.06,189.91Z" style="fill:#fff"></path><path d="M210.06,189.91v0a9.69,9.69,0,0,1,6-12.32L226.19,174l6.37,18.3-10.16,3.54A9.7,9.7,0,0,1,210.06,189.91Z" style="fill:#ebebeb"></path><path d="M218.85,194.44a9.45,9.45,0,0,1-2.32-.29A4.79,4.79,0,0,1,213,191.4l.94-.33a3.84,3.84,0,0,0,2.83,2.11,8.23,8.23,0,0,0,4.69-.17l6.58-2.28.33,1L221.8,194A9.08,9.08,0,0,1,218.85,194.44Z" style="fill:#fff"></path><path d="M257.87,203.26v0a9.69,9.69,0,0,1-6,12.3l-20.31,7a9.67,9.67,0,0,1-12.32-6v0a9.7,9.7,0,0,1,6-12.33l20.31-7A9.7,9.7,0,0,1,257.87,203.26Z" style="fill:#fff"></path><path d="M257.87,203.26v0a9.69,9.69,0,0,1-6,12.3l-10.17,3.51-6.34-18.31,10.17-3.52A9.7,9.7,0,0,1,257.87,203.26Z" style="fill:#ebebeb"></path><path d="M239.87,202.4l-.32-.94,6.58-2.27c3.63-1.25,7.9,0,8.78,2.58l-.94.32c-.69-2-4.48-3-7.51-2Z" style="fill:#fff"></path><path d="M267.06,230v0a9.69,9.69,0,0,1-6,12.31l-20.31,7a9.68,9.68,0,0,1-12.32-6v0a9.7,9.7,0,0,1,6-12.33l20.31-7A9.7,9.7,0,0,1,267.06,230Z" style="fill:#fff"></path><path d="M267.06,230v0a9.69,9.69,0,0,1-6,12.31l-10.17,3.51-6.34-18.32L254.73,224A9.7,9.7,0,0,1,267.06,230Z" style="fill:#ebebeb"></path><path d="M249.06,229.15l-.32-1,6.59-2.26a9.24,9.24,0,0,1,5.26-.18,4.81,4.81,0,0,1,3.52,2.75l-.95.33a3.82,3.82,0,0,0-2.82-2.11,8.23,8.23,0,0,0-4.69.16Z" style="fill:#fff"></path><path d="M237.62,270.12v0a9.68,9.68,0,0,1,6-12.3l20.31-7a9.67,9.67,0,0,1,12.32,6v0a9.69,9.69,0,0,1-6,12.32l-20.31,7A9.7,9.7,0,0,1,237.62,270.12Z" style="fill:#fff"></path><path d="M237.62,270.12v0a9.68,9.68,0,0,1,6-12.3l10.17-3.52,6.34,18.32L250,276.11A9.7,9.7,0,0,1,237.62,270.12Z" style="fill:#ebebeb"></path><path d="M246.42,274.66a9.08,9.08,0,0,1-2.33-.3,4.75,4.75,0,0,1-3.51-2.75l.94-.32a3.88,3.88,0,0,0,2.82,2.11,8.31,8.31,0,0,0,4.69-.16l6.59-2.26.32.94-6.58,2.27A9.33,9.33,0,0,1,246.42,274.66Z" style="fill:#fff"></path><path d="M284.08,134.44v0a9.68,9.68,0,0,1-6,12.31l-20.31,7a9.67,9.67,0,0,1-12.32-6v0a9.7,9.7,0,0,1,6-12.33l20.31-7A9.7,9.7,0,0,1,284.08,134.44Z" style="fill:#fff"></path><path d="M284.08,134.44v0a9.68,9.68,0,0,1-6,12.31l-10.17,3.51L261.58,132l10.17-3.52A9.7,9.7,0,0,1,284.08,134.44Z" style="fill:#ebebeb"></path><path d="M266.08,133.58l-.32-.94,6.58-2.27a9.27,9.27,0,0,1,5.27-.18,4.79,4.79,0,0,1,3.51,2.76l-.94.32a3.84,3.84,0,0,0-2.82-2.11,8.23,8.23,0,0,0-4.69.16Z" style="fill:#fff"></path><path d="M293.26,161.15v0a9.68,9.68,0,0,1-6,12.32L267,180.55a9.68,9.68,0,0,1-12.33-5.93v0a9.71,9.71,0,0,1,6-12.34l20.3-7.07A9.7,9.7,0,0,1,293.26,161.15Z" style="fill:#fff"></path><path d="M293.26,161.15v0a9.68,9.68,0,0,1-6,12.32L277.13,177l-6.38-18.3,10.17-3.54A9.7,9.7,0,0,1,293.26,161.15Z" style="fill:#ebebeb"></path><path d="M275.26,160.33l-.33-1,6.58-2.28c3.63-1.25,7.9,0,8.79,2.56l-.95.33c-.69-2-4.48-3-7.51-1.94Z" style="fill:#fff"></path><path d="M263.83,201.3v0a9.68,9.68,0,0,1,6-12.3l20.31-7a9.67,9.67,0,0,1,12.32,6v0a9.69,9.69,0,0,1-6,12.32l-20.31,7A9.71,9.71,0,0,1,263.83,201.3Z" style="fill:#fff"></path><path d="M263.83,201.3v0a9.68,9.68,0,0,1,6-12.3L280,185.45l6.34,18.32-10.17,3.52A9.71,9.71,0,0,1,263.83,201.3Z" style="fill:#ebebeb"></path><path d="M272.61,205.85c-2.71,0-5.18-1.17-5.82-3.06l.94-.32c.69,2,4.48,3,7.51,1.95l6.59-2.26.32.94-6.58,2.27A9.22,9.22,0,0,1,272.61,205.85Z" style="fill:#fff"></path><path d="M273,228.05v0a9.69,9.69,0,0,1,6-12.3l20.32-7a9.69,9.69,0,0,1,12.32,6v0a9.7,9.7,0,0,1-6,12.33l-20.31,7A9.71,9.71,0,0,1,273,228.05Z" style="fill:#fff"></path><path d="M273,228.05v0a9.69,9.69,0,0,1,6-12.3l10.17-3.52,6.34,18.32L285.35,234A9.71,9.71,0,0,1,273,228.05Z" style="fill:#ebebeb"></path><path d="M281.82,232.59a9.08,9.08,0,0,1-2.33-.3,4.75,4.75,0,0,1-3.51-2.75l.94-.33a3.84,3.84,0,0,0,2.83,2.11,8.19,8.19,0,0,0,4.68-.15L291,228.9l.33.95-6.59,2.26A9.06,9.06,0,0,1,281.82,232.59Z" style="fill:#fff"></path><path d="M320.85,241.43v0a9.67,9.67,0,0,1-6,12.3l-20.32,7a9.68,9.68,0,0,1-12.32-6v0a9.7,9.7,0,0,1,6-12.32l20.32-7A9.7,9.7,0,0,1,320.85,241.43Z" style="fill:#fff"></path><path d="M320.85,241.43v0a9.67,9.67,0,0,1-6,12.3l-10.17,3.52L298.35,239l10.17-3.52A9.7,9.7,0,0,1,320.85,241.43Z" style="fill:#ebebeb"></path><path d="M302.85,240.57l-.33-.94,6.59-2.27c3.63-1.24,7.9,0,8.78,2.58l-.94.32c-.69-2-4.48-3-7.51-1.95Z" style="fill:#fff"></path><rect x="288.18" y="43.76" width="175.88" height="226.73" style="fill:#ebebeb"></rect><rect x="296.46" y="52.03" width="159.34" height="210.18" style="fill:#fff"></rect><path d="M371.82,217.37s-2.68,22.39-2.68,22.4c-.06,4.4-.19,8.25-.44,10.24v0a3.25,3.25,0,0,1-.34,1.35l0,0c-1.32.87-36.45,1.44-37.68,1.05s-.21-3.94,1.13-5.05,14.71-7.34,14.71-7.34l3.34-23Z" style="fill:#ebebeb"></path><polygon points="370.13 232.5 347.64 232.14 362.3 117.25 383.06 117.25 370.13 232.5" style="fill:#ebebeb"></polygon><path d="M383.65,217.79S386,239,386,239c0,4.39.13,8.24.37,10.23v0a3,3,0,0,0,.34,1.36l0,0c1.32.88,32.68,1.67,33.92,1.29s.23-3.93-1.11-5-10.89-7.44-10.89-7.44l-3-21.78Z" style="fill:#ebebeb"></path><path d="M364.41,117.23v0c.09.43,1.54,7.16,3,12.95,1.1,4.22,2.22,7.94,2.87,8.32s4.3,2,5.49,2.51l9.3,91.27h22.4l-14.7-115.07Z" style="fill:#ebebeb"></path><path d="M345.12,130.89c-1.25,1.83-1.38,5.26-2.95,4.77-1.4-.43-1.08-2.8-1.08-2.8s-1.22,2.55-2.6,1.66-.49-3.42-.49-3.42-.92,2.17-2.23,1.18-.94-3.27-.94-3.27-.69.44-1.3-.68c-.87-1.59.68-5.2,1.93-6.89s8.21-8.45,9.12-9.24l10.7,8.15s-1.73,5.35-2.4,7.34-4.74,7.95-6.29,7,1.4-5.06,1.89-6.23.31-1.49-.32-1.14A26.32,26.32,0,0,0,345.12,130.89Z" style="fill:#ebebeb"></path><path d="M341.16,132.76c.68-3.27,1.55-4.59,3.83-6.95.05,0,0-.12-.06-.08-2.45,2.11-3.77,3.6-3.93,7C341,132.9,341.13,132.91,341.16,132.76Z" style="fill:#fff"></path><path d="M338,131.24a17.66,17.66,0,0,1,4.14-7.42s0-.09-.06,0c-2.39,2.42-3.68,3.93-4.24,7.4C337.82,131.32,338,131.4,338,131.24Z" style="fill:#fff"></path><path d="M334.87,129a15.73,15.73,0,0,1,4.63-7.07c.05-.06,0-.15-.08-.1a11.23,11.23,0,0,0-4.65,7.12C334.73,129.14,334.79,129.18,334.87,129Z" style="fill:#fff"></path><path d="M371.87,82.55c-11,7.91-26.51,28.44-28.82,31.63-1.57,2.16,9.67,10.7,10.51,9.08,1.08-2.09,17.52-27,21.7-37.1C377.54,80.62,374.15,80.91,371.87,82.55Z" style="fill:#ebebeb"></path><path d="M362.3,117.25l30.52,0s-3.7-24.44-9.74-33.85a6.46,6.46,0,0,0-11,.09C364.92,96.07,362.3,117.25,362.3,117.25Z" style="fill:#ebebeb"></path><path d="M410.31,130.89c1.25,1.83,1.38,5.26,2.95,4.77,1.4-.43,1.08-2.8,1.08-2.8s1.22,2.55,2.6,1.66.49-3.42.49-3.42.92,2.17,2.23,1.18.94-3.27.94-3.27.69.44,1.3-.68c.87-1.59-.68-5.2-1.93-6.89s-8.21-8.45-9.12-9.24l-10.7,8.15s1.73,5.35,2.41,7.34,4.73,7.95,6.28,7-1.4-5.06-1.89-6.23-.31-1.49.32-1.14A26.32,26.32,0,0,1,410.31,130.89Z" style="fill:#ebebeb"></path><path d="M414.27,132.76c-.68-3.27-1.55-4.59-3.83-6.95-.05,0,0-.12.06-.08,2.45,2.11,3.77,3.6,3.93,7C414.44,132.9,414.3,132.91,414.27,132.76Z" style="fill:#fff"></path><path d="M417.42,131.24a17.66,17.66,0,0,0-4.14-7.42s0-.09.06,0c2.39,2.42,3.68,3.93,4.24,7.4C417.61,131.32,417.47,131.4,417.42,131.24Z" style="fill:#fff"></path><path d="M420.57,129a15.89,15.89,0,0,0-4.63-7.07.06.06,0,0,1,.08-.1,11.21,11.21,0,0,1,4.64,7.12C420.71,129.14,420.64,129.18,420.57,129Z" style="fill:#fff"></path><path d="M383.56,82.55c11,7.91,26.51,28.44,28.82,31.63,1.57,2.16-9.67,10.7-10.51,9.08-1.08-2.09-17.52-27-21.7-37.1C377.89,80.62,381.28,80.91,383.56,82.55Z" style="fill:#ebebeb"></path><path d="M373.89,85.6c1.73,1,5.23-1.3,6.64-3.56.1-.16.24-6.51.31-7.79,0-.26-8.14,1.48-8.14,1.48a20.35,20.35,0,0,1,.48,5,3,3,0,0,1-.08.52s0,0,0,.08C372.86,82.29,373,85.09,373.89,85.6Z" style="fill:#ebebeb"></path><path d="M373.08,81.3a5.11,5.11,0,0,0,.82.1c4.22.15,6-4.92,6.63-7.16-1.48.14-7.84,1.49-7.84,1.49a20.12,20.12,0,0,1,.49,5,2.83,2.83,0,0,1-.08.52S373.08,81.27,373.08,81.3Z" style="fill:#c7c7c7"></path><path d="M382.15,64.33c.91,2.84-.5,11.1-2.51,13-2.91,2.7-7.72,3-10-.49s-.21-14.13,2-15.83C375,58.47,380.81,60.13,382.15,64.33Z" style="fill:#ebebeb"></path><path d="M375.3,69.58s0,0,0,0c-.11.56-.14,1.21.33,1.48,0,0,0,0,0,0C375.06,71,375.11,70.08,375.3,69.58Z" style="fill:#c7c7c7"></path><path d="M375.9,69.08c.9.08.68,1.88-.16,1.81S375.14,69,375.9,69.08Z" style="fill:#c7c7c7"></path><path d="M371.81,69s-.05,0-.05,0c-.05.56-.21,1.2-.74,1.32,0,0,0,0,0,0C371.65,70.41,371.85,69.57,371.81,69Z" style="fill:#c7c7c7"></path><path d="M371.38,68.38c-.89-.18-1.19,1.61-.36,1.78S372.13,68.53,371.38,68.38Z" style="fill:#c7c7c7"></path><path d="M376.55,68.06c-.26,0-.48-.12-.73-.18a1.27,1.27,0,0,1-.7-.33.38.38,0,0,1,0-.47,1,1,0,0,1,.95-.19,1.45,1.45,0,0,1,.86.53A.41.41,0,0,1,376.55,68.06Z" style="fill:#c7c7c7"></path><path d="M370.76,67.58c.26,0,.49,0,.75,0a1.21,1.21,0,0,0,.77-.12.38.38,0,0,0,.11-.45.93.93,0,0,0-.86-.45,1.4,1.4,0,0,0-1,.27A.41.41,0,0,0,370.76,67.58Z" style="fill:#c7c7c7"></path><path d="M374.91,74.72c-.15.11-.31.28-.51.27a1.56,1.56,0,0,1-.59-.22s0,0,0,0a.78.78,0,0,0,.68.39.58.58,0,0,0,.5-.44A0,0,0,0,0,374.91,74.72Z" style="fill:#c7c7c7"></path><path d="M374.53,73a1.93,1.93,0,0,1-1.38.69,2.69,2.69,0,0,1-.69-.06.31.31,0,0,1-.13,0l-.12,0a.14.14,0,0,1-.09-.14h0a.09.09,0,0,1,0,0h0v0c0-.43.16-1.08.16-1.08-.16.06-1,.32-1,.1a28.91,28.91,0,0,1,1.46-5.68c0-.06.11,0,.1,0-.26,1.79-.83,3.52-1.13,5.32a3,3,0,0,1,.94-.16c.06,0-.26,1.25-.27,1.45v0a2.67,2.67,0,0,0,2.05-.37S374.57,72.93,374.53,73Z" style="fill:#c7c7c7"></path><path d="M382.09,71.23c-1.23.29-2.14-1.19-2.42-2s.42-5-.13-6.13a2.63,2.63,0,0,0-2.81-1.58c-1,.26-2.35,1.53-3.09,1.43s-.86-1.7-1.37-1.72c-1.13,0-2.43,2.71-2.68,3.94,0,0,.16-5.32,5.6-5.6s6.89,3.41,7.29,5A13.68,13.68,0,0,1,382.09,71.23Z" style="fill:#c7c7c7"></path><path d="M379.86,70.75s1.83-2.68,3-2-.13,4.53-1.55,5.07a1.44,1.44,0,0,1-1.94-.75Z" style="fill:#ebebeb"></path><path d="M382.49,69.82a0,0,0,0,1,0,0,3.62,3.62,0,0,0-1.86,2.3.79.79,0,0,1,1.19-.23,0,0,0,0,1,0,0,.88.88,0,0,0-1,.32,3.77,3.77,0,0,0-.46.8c-.05.09-.21,0-.18-.06v0C380.16,71.75,381.13,70,382.49,69.82Z" style="fill:#c7c7c7"></path><path d="M352.8,193.52a.47.47,0,0,1-.07.25L346.23,205a.5.5,0,0,1-.43.25h-13a.5.5,0,0,1-.43-.25l-6.5-11.26a.5.5,0,0,1,0-.5l6.5-11.27a.52.52,0,0,1,.43-.25h13a.52.52,0,0,1,.43.25l6.5,11.27A.45.45,0,0,1,352.8,193.52Zm-7.29,10.77,6.22-10.77-6.22-10.77H333.07l-6.22,10.77,6.22,10.77Z" style="fill:#ebebeb"></path><path d="M365.87,193.52a.49.49,0,0,1-.49.49H352.23a.5.5,0,1,1,0-1h13.15A.49.49,0,0,1,365.87,193.52Z" style="fill:#ebebeb"></path><path d="M326.8,171a.49.49,0,0,1-.49.5H313.16a.5.5,0,0,1-.5-.5.5.5,0,0,1,.5-.5h13.15A.5.5,0,0,1,326.8,171Z" style="fill:#ebebeb"></path><path d="M333.3,182.25a.5.5,0,0,1-.93.24l-6.53-11.26a.51.51,0,0,1,.2-.68.49.49,0,0,1,.67.2L333.24,182A.53.53,0,0,1,333.3,182.25Z" style="fill:#ebebeb"></path><path d="M333.3,159.48a.5.5,0,0,1-.25.44.51.51,0,0,1-.68-.2l-6.53-11.26a.49.49,0,0,1,.87-.47l6.53,11.25A.53.53,0,0,1,333.3,159.48Z" style="fill:#ebebeb"></path><path d="M313.65,148.22a.49.49,0,0,1-.26.44.49.49,0,0,1-.67-.2l-6.53-11.26a.5.5,0,0,1,.87-.48L313.59,148A.53.53,0,0,1,313.65,148.22Z" style="fill:#ebebeb"></path><path d="M325.78,171a.49.49,0,0,0,.26.44.49.49,0,0,0,.67-.2L333.24,160a.5.5,0,0,0-.87-.48l-6.53,11.26A.53.53,0,0,0,325.78,171Z" style="fill:#ebebeb"></path><path d="M325.78,147.82a.5.5,0,0,0,.93.24l6.53-11.26a.5.5,0,1,0-.87-.48l-6.53,11.26A.5.5,0,0,0,325.78,147.82Z" style="fill:#ebebeb"></path><path d="M345.22,204.79a.51.51,0,0,1,.26-.44.49.49,0,0,1,.67.2l6.53,11.26a.48.48,0,0,1-.19.67.51.51,0,0,1-.68-.2L345.28,205A.53.53,0,0,1,345.22,204.79Z" style="fill:#ebebeb"></path><path d="M345.22,227.39a.51.51,0,0,1,.26-.44.49.49,0,0,1,.67.2l6.53,11.26a.48.48,0,0,1-.19.67.49.49,0,0,1-.68-.19l-6.53-11.26A.53.53,0,0,1,345.22,227.39Z" style="fill:#ebebeb"></path><path d="M352.74,216.07a.5.5,0,0,0-.25-.44.51.51,0,0,0-.68.2l-6.53,11.25a.5.5,0,0,0,.2.68.49.49,0,0,0,.67-.2l6.53-11.26A.46.46,0,0,0,352.74,216.07Z" style="fill:#ebebeb"></path><path d="M345.28,182.25a.5.5,0,0,0,.93.24l6.53-11.26a.51.51,0,0,0-.2-.68.49.49,0,0,0-.67.2L345.34,182A.53.53,0,0,0,345.28,182.25Z" style="fill:#ebebeb"></path><path d="M314.18,171a1.85,1.85,0,1,1-1.84-1.85A1.84,1.84,0,0,1,314.18,171Z" style="fill:#ebebeb"></path><path d="M326.8,148.22a.49.49,0,0,1-.49.5H313.16a.5.5,0,1,1,0-1h13.15A.49.49,0,0,1,326.8,148.22Z" style="fill:#ebebeb"></path><path d="M308,136.06a1.85,1.85,0,1,1-1.84-1.84A1.84,1.84,0,0,1,308,136.06Z" style="fill:#ebebeb"></path><path d="M354,171a1.85,1.85,0,1,1-1.85-1.85A1.85,1.85,0,0,1,354,171Z" style="fill:#ebebeb"></path><path d="M368.64,193.52a1.85,1.85,0,1,1-1.84-1.85A1.84,1.84,0,0,1,368.64,193.52Z" style="fill:#ebebeb"></path><path d="M365.87,238.64a.49.49,0,0,1-.49.5H352.23a.5.5,0,1,1,0-1h13.15A.49.49,0,0,1,365.87,238.64Z" style="fill:#ebebeb"></path><circle cx="366.8" cy="238.64" r="1.85" style="fill:#ebebeb"></circle><path d="M433.53,80.93a.45.45,0,0,1-.07.25L427,92.45a.52.52,0,0,1-.43.25h-13a.52.52,0,0,1-.43-.25l-6.5-11.27a.5.5,0,0,1,0-.5l6.5-11.26a.5.5,0,0,1,.43-.25h13a.5.5,0,0,1,.43.25l6.5,11.26A.47.47,0,0,1,433.53,80.93Zm-7.29,10.78,6.22-10.78-6.22-10.77H413.8l-6.22,10.77,6.22,10.78Z" style="fill:#ebebeb"></path><path d="M446.6,80.93a.49.49,0,0,1-.49.5H433a.5.5,0,0,1,0-1h13.16A.49.49,0,0,1,446.6,80.93Z" style="fill:#ebebeb"></path><path d="M446.6,103.31a.49.49,0,0,1-.49.5H433a.49.49,0,0,1-.49-.5.5.5,0,0,1,.49-.5h13.16A.5.5,0,0,1,446.6,103.31Z" style="fill:#ebebeb"></path><path d="M426.89,114.74a.5.5,0,0,1-.5.5H413.24a.51.51,0,0,1-.5-.5.5.5,0,0,1,.5-.5h13.15A.5.5,0,0,1,426.89,114.74Z" style="fill:#ebebeb"></path><path d="M426,92.2a.5.5,0,0,1,.93-.24l6.53,11.26a.49.49,0,0,1-.19.68.51.51,0,0,1-.68-.2L426,92.44A.5.5,0,0,1,426,92.2Z" style="fill:#ebebeb"></path><path d="M426,114.81a.49.49,0,0,1,.26-.44.49.49,0,0,1,.67.2l6.53,11.25a.49.49,0,0,1-.19.68.51.51,0,0,1-.68-.2L426,115A.46.46,0,0,1,426,114.81Z" style="fill:#ebebeb"></path><path d="M445.72,103.31a.51.51,0,0,1,.26-.43.48.48,0,0,1,.67.19l6.53,11.26a.5.5,0,0,1-.19.68.51.51,0,0,1-.68-.2l-6.53-11.26A.53.53,0,0,1,445.72,103.31Z" style="fill:#ebebeb"></path><path d="M433.47,103.48a.52.52,0,0,0-.25-.44.51.51,0,0,0-.68.2L426,114.5a.49.49,0,0,0,.2.67.48.48,0,0,0,.67-.19l6.53-11.26A.53.53,0,0,0,433.47,103.48Z" style="fill:#ebebeb"></path><path d="M426,69.66a.5.5,0,0,0,.25.44.51.51,0,0,0,.68-.2l6.53-11.26a.49.49,0,1,0-.87-.47l-6.53,11.26A.46.46,0,0,0,426,69.66Z" style="fill:#ebebeb"></path><circle cx="432.86" cy="58.39" r="1.85" style="fill:#ebebeb"></circle><circle cx="447.53" cy="80.93" r="1.85" style="fill:#ebebeb"></circle><path d="M455.09,115.24a1.85,1.85,0,1,1-1.84-1.85A1.84,1.84,0,0,1,455.09,115.24Z" style="fill:#ebebeb"></path><circle cx="433.47" cy="127.31" r="1.85" style="fill:#ebebeb"></circle><path d="M413.9,114.74a1.85,1.85,0,1,1-1.85-1.85A1.85,1.85,0,0,1,413.9,114.74Z" style="fill:#ebebeb"></path><rect x="451.57" y="364.15" width="3.99" height="87.82" transform="translate(907.13 816.12) rotate(180)" style="fill:#a6a6a6"></rect><rect x="366.56" y="446.52" width="85.01" height="5.45" transform="translate(818.14 898.49) rotate(180)" style="fill:#a6a6a6"></rect><path d="M422.51,359l.3,75.14a7.69,7.69,0,1,0,15.37-.07l-.3-75.14Z" style="fill:#ebebeb"></path><path d="M423.49,377.83l.21,56.26a6.8,6.8,0,0,0,13.59-.07l-.21-56.25Z" style="fill:#c7c7c7"></path><rect x="420.1" y="353.21" width="20.19" height="10.13" transform="translate(862 714.61) rotate(179.74)" style="fill:#a6a6a6"></rect><path d="M374.9,359l.29,75.14a7.69,7.69,0,1,0,15.37-.07l-.29-75.14Z" style="fill:#ebebeb"></path><path d="M375.88,377.83l.21,56.26a6.79,6.79,0,1,0,13.58-.07l-.21-56.25Z" style="fill:#c7c7c7"></path><rect x="372.49" y="353.21" width="20.19" height="10.13" transform="translate(766.78 714.82) rotate(179.74)" style="fill:#a6a6a6"></rect><path d="M398.83,359l.3,75.14a7.69,7.69,0,1,0,15.37-.07l-.3-75.14Z" style="fill:#ebebeb"></path><path d="M399.81,377.83l.21,56.26A6.79,6.79,0,1,0,413.6,434l-.2-56.25Z" style="fill:#a6a6a6"></path><rect x="396.42" y="353.21" width="20.19" height="10.13" transform="translate(814.64 714.72) rotate(179.74)" style="fill:#c7c7c7"></rect><path d="M366.56,393.22l0,7.27h85v-7.27h-13.8v2.43c0,1.21-3.4,2.18-7.58,2.18s-7.56-1-7.56-2.18v-2.43h-8.55v2.43c0,1.21-3.38,2.18-7.56,2.18s-7.57-1-7.57-2.18v-2.43H390.4v2.43c0,1.21-3.39,2.18-7.57,2.18s-7.57-1-7.57-2.18v-2.43Z" style="fill:#c7c7c7"></path><rect x="366.56" y="400.5" width="85.01" height="2.93" transform="translate(818.14 803.93) rotate(180)" style="fill:#a6a6a6"></rect><rect x="362.58" y="364.15" width="3.99" height="87.82" transform="translate(729.14 816.12) rotate(180)" style="fill:#a6a6a6"></rect><rect x="48.56" y="296.34" width="5.79" height="151.67" style="fill:#a6a6a6"></rect><rect x="79.04" y="280.8" width="5.79" height="44.86" transform="translate(-221.29 385.17) rotate(-90)" style="fill:#a6a6a6"></rect><rect x="54.35" y="297.5" width="5.16" height="11.46" style="fill:#c7c7c7"></rect><rect x="42.31" y="448" width="18.29" height="3.97" style="fill:#a6a6a6"></rect><g style="opacity:0.7000000000000001"><path d="M113.19,343.36a32.32,32.32,0,1,1-40.71-31.29l.1-26.17H70v-5.13l22.15,0V286H89.49l-.1,26.16A32.32,32.32,0,0,1,113.19,343.36Z" style="fill:#fff"></path><path d="M113.19,343.36a32.36,32.36,0,0,1-18,29,32.56,32.56,0,0,1-46.34-35.44,32.4,32.4,0,0,1,8.16-16,32.8,32.8,0,0,1,15.39-9.29l-.34.45L72,299l.08-13.08.46.46H69.52v-.45l0-5.13v-.44H70l22.15.18h.3v.3l0,5.14v.27h-.27l-2.62,0,.25-.25-.28,26.16,0-.07a32.35,32.35,0,0,1,23.78,31.32Zm0,0a32.28,32.28,0,0,0-23.82-31.17l-.06,0v-.06L89.24,286v-.25h.25l2.62,0-.27.27,0-5.14.31.31L70,281.2l.43-.43v5.13l-.45-.44H73V299l-.08,13.08v.36l-.34.09a32,32,0,1,0,35.66,47.86A32.3,32.3,0,0,0,113.19,343.36Z" style="fill:#263238"></path></g><path d="M54.35,343.23s-.71-18.33,18-24.47" style="fill:#fff"></path><path d="M107.51,346a26.78,26.78,0,0,1-53.27,0Z" style="fill:#dbdbdb"></path><path d="M101.48,337.75a2.43,2.43,0,1,1-2.43-2.43A2.42,2.42,0,0,1,101.48,337.75Z" style="fill:#dbdbdb"></path><path d="M89,343.23a1.57,1.57,0,1,1-1.56-1.56A1.56,1.56,0,0,1,89,343.23Z" style="fill:#dbdbdb"></path><path d="M69.68,334.63a1.57,1.57,0,1,1-1.56-1.57A1.56,1.56,0,0,1,69.68,334.63Z" style="fill:#dbdbdb"></path><path d="M92.67,331.86a1.2,1.2,0,1,1-1.2-1.2A1.2,1.2,0,0,1,92.67,331.86Z" style="fill:#dbdbdb"></path><path d="M61.57,343.23a1.2,1.2,0,1,1-1.2-1.2A1.21,1.21,0,0,1,61.57,343.23Z" style="fill:#dbdbdb"></path><path d="M65.61,342.24a.5.5,0,1,1-.49-.49A.49.49,0,0,1,65.61,342.24Z" style="fill:#dbdbdb"></path><rect x="69.39" y="404.89" width="23.45" height="47.08" style="fill:#dbdbdb"></rect><rect x="80.59" y="399.81" width="1.04" height="5.08" style="fill:#263238"></rect><path d="M81.11,401c-6.78,0,0-13.64,0-13.64S87.9,401,81.11,401Z" style="fill:#dbdbdb"></path><path d="M81.11,401c-4.17,0,0-8.41,0-8.41S85.29,401,81.11,401Z" style="fill:#ebebeb"></path><path d="M170.91,91.61c5,21.13,25,35.49,46.48,30.45,12.89-3,23.47-10.35,28.57-21.22,3.41-7.24,4.38-16,2-26.18C242,49.31,220,38.57,199,43.5a36.08,36.08,0,0,0-21.32,13.71C170.23,67.21,168.31,80.54,170.91,91.61Z" style="fill:#ebebeb;opacity:0.30000000000000004"></path><path d="M188.27,116.11a40.67,40.67,0,0,1-16.78-24.63c-2.73-11.66-.18-24.63,6.66-33.84a35.87,35.87,0,0,1,21-13.53,40,40,0,0,1,29.67,4.17c9.37,5.52,15.78,14.68,18.54,26.48,2.24,9.53,1.57,18.2-2,25.77-4.88,10.39-14.86,17.82-28.09,20.92a37.59,37.59,0,0,1-8.52,1A36.57,36.57,0,0,1,188.27,116.11Zm11.37-70.06a33.94,33.94,0,0,0-19.88,12.78c-6.5,8.75-8.92,21.09-6.32,32.19h0a38.67,38.67,0,0,0,15.95,23.43,34.56,34.56,0,0,0,27.46,5c12.63-3,22.12-10,26.74-19.82,3.36-7.15,4-15.38,1.86-24.46-2.64-11.26-8.73-20-17.62-25.22A36.83,36.83,0,0,0,209,45,41.23,41.23,0,0,0,199.64,46.05Z" style="fill:#ebebeb;opacity:0.30000000000000004"></path><path d="M188.85,87.47c2.66,11.31,13.4,19,24.9,16.31,6.9-1.62,12.56-5.55,15.3-11.37a21.08,21.08,0,0,0,1.07-14c-3.18-13.58-15-19.33-26.23-16.69a19.31,19.31,0,0,0-11.42,7.34A22.85,22.85,0,0,0,188.85,87.47Z" style="fill:#ebebeb;opacity:0.8"></path><path d="M216.81,70.05A2.67,2.67,0,0,0,220,72.13a2.78,2.78,0,0,0,2-1.45,2.67,2.67,0,0,0,.13-1.79,2.71,2.71,0,0,0-3.35-2.14,2.53,2.53,0,0,0-1.46.94A2.92,2.92,0,0,0,216.81,70.05Z" style="opacity:0.1"></path><path d="M217.93,94.28a2.68,2.68,0,0,0,3.18,2.09,2.77,2.77,0,0,0,2-1.46A2.87,2.87,0,0,0,219.85,91a2.47,2.47,0,0,0-1.46.93A3,3,0,0,0,217.93,94.28Z" style="opacity:0.1"></path><path d="M214,75.93a2,2,0,0,0,2.55-1.1,2,2,0,0,0-.09-1.78,1.94,1.94,0,0,0-1-.81,2,2,0,0,0-2.65,1.19,1.77,1.77,0,0,0,0,1.26A2.15,2.15,0,0,0,214,75.93Z" style="opacity:0.1"></path><path d="M191.39,83.15a2,2,0,0,0,2.55-1.1,2,2,0,0,0-.1-1.78,1.92,1.92,0,0,0-1-.81,2,2,0,0,0-2.66,1.19,1.79,1.79,0,0,0,0,1.27A2.11,2.11,0,0,0,191.39,83.15Z" style="opacity:0.1"></path><path d="M222,76.66a1.4,1.4,0,0,0,.21,2,1.34,1.34,0,0,0,2-.22,1.45,1.45,0,0,0-.24-2.09,1.36,1.36,0,0,0-.87-.28A1.53,1.53,0,0,0,222,76.66Z" style="opacity:0.1"></path><path d="M194.06,91.5a1.42,1.42,0,0,0,.21,2,1.44,1.44,0,0,0,1.24.31,1.41,1.41,0,0,0,.78-.54,1.43,1.43,0,0,0-.24-2.08,1.29,1.29,0,0,0-.87-.28A1.56,1.56,0,0,0,194.06,91.5Z" style="opacity:0.1"></path><path d="M49.79,228.12c3.52,15,17.77,25.2,33,21.62,9.15-2.14,16.66-7.35,20.29-15.07,2.42-5.14,3.11-11.39,1.42-18.58-4.21-18-19.86-25.63-34.78-22.13a25.64,25.64,0,0,0-15.14,9.73A30.3,30.3,0,0,0,49.79,228.12Z" style="fill:#ebebeb;opacity:0.30000000000000004"></path><path d="M62,245.76a29.19,29.19,0,0,1-12-17.67,30.11,30.11,0,0,1,4.78-24.26,25.77,25.77,0,0,1,15.1-9.72,28.72,28.72,0,0,1,21.28,3c6.72,4,11.33,10.53,13.31,19,1.6,6.83,1.11,13.06-1.44,18.49-3.51,7.46-10.66,12.79-20.14,15a26.69,26.69,0,0,1-6.12.71A26.25,26.25,0,0,1,62,245.76Zm8.3-49.7a23.43,23.43,0,0,0-14,9,28.07,28.07,0,0,0-4.44,22.62h0a27.22,27.22,0,0,0,11.2,16.46,24.22,24.22,0,0,0,19.28,3.54c8.88-2.08,15.55-7,18.79-13.91,2.36-5,2.79-10.8,1.3-17.18-1.85-7.92-6.13-14-12.38-17.73a25.9,25.9,0,0,0-13.22-3.54A28.63,28.63,0,0,0,70.26,196.06Z" style="fill:#ebebeb;opacity:0.30000000000000004"></path><path d="M62.53,225.18c1.89,8,9.52,13.5,17.68,11.58,4.9-1.15,8.92-3.93,10.87-8.07a15,15,0,0,0,.76-9.95C89.58,209.1,81.2,205,73.21,206.89a13.69,13.69,0,0,0-8.1,5.21A16.24,16.24,0,0,0,62.53,225.18Z" style="fill:#ebebeb;opacity:0.8"></path><path d="M68.77,231.73A1.9,1.9,0,0,0,71,233.21a2,2,0,0,0,1.39-1,2.05,2.05,0,0,0-2.29-2.79,1.78,1.78,0,0,0-1,.67A2,2,0,0,0,68.77,231.73Z" style="opacity:0.1"></path><path d="M83.6,222.64a1.89,1.89,0,0,0,2.26,1.48,2,2,0,0,0,1.39-1,1.85,1.85,0,0,0,.1-1.27A1.93,1.93,0,0,0,85,220.3a1.76,1.76,0,0,0-1,.67A2.1,2.1,0,0,0,83.6,222.64Z" style="opacity:0.1"></path><path d="M82.51,217.48a1.39,1.39,0,0,0,1.81-.78,1.44,1.44,0,0,0-.06-1.27,1.5,1.5,0,0,0-2.63.27,1.33,1.33,0,0,0,0,.9A1.51,1.51,0,0,0,82.51,217.48Z" style="opacity:0.1"></path><path d="M64.13,221.56a1.43,1.43,0,0,0,1.74-2,1.36,1.36,0,0,0-.73-.58,1.42,1.42,0,0,0-1.89.84,1.35,1.35,0,0,0,0,.91A1.53,1.53,0,0,0,64.13,221.56Z" style="opacity:0.1"></path><path d="M87.47,217.34a1,1,0,0,0,1,1.64,1,1,0,0,0,.56-.38,1,1,0,0,0-.18-1.48.93.93,0,0,0-.61-.2A1.1,1.1,0,0,0,87.47,217.34Z" style="opacity:0.1"></path><path d="M66.89,216.09a1,1,0,0,0,.14,1.42,1,1,0,0,0,.89.22.94.94,0,0,0,.55-.38,1,1,0,0,0-.17-1.48,1,1,0,0,0-.62-.2A1.09,1.09,0,0,0,66.89,216.09Z" style="opacity:0.1"></path><path d="M106.62,262.13c2.44,10.41,12.32,17.48,22.9,15,6.34-1.49,11.55-5.1,14.07-10.45a19.41,19.41,0,0,0,1-12.89c-2.92-12.49-13.77-17.78-24.12-15.35a17.78,17.78,0,0,0-10.5,6.75A21,21,0,0,0,106.62,262.13Z" style="fill:#ebebeb;opacity:0.30000000000000004"></path><path d="M115,274.42a20.35,20.35,0,0,1-8.38-12.29h0A21,21,0,0,1,110,245.25a17.92,17.92,0,0,1,10.51-6.77,19.51,19.51,0,0,1,24.06,15.3,19.34,19.34,0,0,1-1,12.86c-2.44,5.19-7.42,8.9-14,10.44a18.23,18.23,0,0,1-14.5-2.66Zm5.8-34.46a16.22,16.22,0,0,0-9.64,6.19,19.41,19.41,0,0,0-3.06,15.63h0a18.75,18.75,0,0,0,7.74,11.38,16.73,16.73,0,0,0,13.32,2.45c6.14-1.44,10.75-4.85,13-9.61a17.79,17.79,0,0,0,.89-11.88,18.6,18.6,0,0,0-8.55-12.25,17.88,17.88,0,0,0-9.14-2.45A19.77,19.77,0,0,0,120.83,240Z" style="fill:#ebebeb;opacity:0.30000000000000004"></path><path d="M115.46,260.1c1.31,5.57,6.6,9.35,12.26,8a10.69,10.69,0,0,0,7.53-5.6,10.33,10.33,0,0,0,.53-6.9c-1.56-6.69-7.37-9.52-12.91-8.22a9.56,9.56,0,0,0-5.63,3.61A11.28,11.28,0,0,0,115.46,260.1Z" style="fill:#ebebeb;opacity:0.8"></path><path d="M130.59,261.45a1.32,1.32,0,0,0,1.57,1,1.36,1.36,0,0,0,1-.72,1.29,1.29,0,0,0,.07-.88,1.33,1.33,0,0,0-1.65-1.05,1.18,1.18,0,0,0-.72.46A1.44,1.44,0,0,0,130.59,261.45Z" style="opacity:0.1"></path><path d="M118.18,252.8a1.32,1.32,0,0,0,1.57,1,1.35,1.35,0,0,0,1-.71,1.31,1.31,0,0,0,.07-.89,1.34,1.34,0,0,0-1.65-1,1.28,1.28,0,0,0-.72.46A1.48,1.48,0,0,0,118.18,252.8Z" style="opacity:0.1"></path><path d="M124.1,267.12a1,1,0,0,0,1.26-.54,1,1,0,0,0,0-.87,1,1,0,0,0-.51-.4,1,1,0,0,0-1.31.58.91.91,0,0,0,0,.63A1,1,0,0,0,124.1,267.12Z" style="opacity:0.1"></path><path d="M116.71,258a1,1,0,0,0,1.26-.54,1,1,0,0,0,0-.88,1,1,0,0,0-.51-.4,1,1,0,0,0-1.31.59.94.94,0,0,0,0,.62A1.09,1.09,0,0,0,116.71,258Z" style="opacity:0.1"></path><path d="M133,257.6a.69.69,0,0,0,.1,1,.7.7,0,0,0,.61.16.65.65,0,0,0,.38-.27.69.69,0,0,0-.12-1,.58.58,0,0,0-.42-.14A.73.73,0,0,0,133,257.6Z" style="opacity:0.1"></path><path d="M119.9,255.21a.69.69,0,0,0,.1,1,.7.7,0,0,0,.61.15.68.68,0,0,0,.39-.26.72.72,0,0,0-.12-1,.73.73,0,0,0-.43-.14A.76.76,0,0,0,119.9,255.21Z" style="opacity:0.1"></path><path d="M120.33,107.34c2.44,10.41,12.33,17.48,22.9,15,6.34-1.49,11.55-5.1,14.07-10.45a19.41,19.41,0,0,0,1-12.89c-2.93-12.49-13.78-17.78-24.13-15.35a17.81,17.81,0,0,0-10.5,6.75A21,21,0,0,0,120.33,107.34Z" style="fill:#ebebeb;opacity:0.30000000000000004"></path><path d="M128.74,119.62a20.24,20.24,0,0,1-8.37-12.28h0a20.94,20.94,0,0,1,3.32-16.88,18,18,0,0,1,10.51-6.77A19.5,19.5,0,0,1,158.26,99a19.3,19.3,0,0,1-1,12.87c-2.44,5.19-7.42,8.9-14,10.44a18.84,18.84,0,0,1-4.26.5A18.25,18.25,0,0,1,128.74,119.62Zm5.8-34.46a16.28,16.28,0,0,0-9.64,6.2A19.41,19.41,0,0,0,121.84,107h0a18.75,18.75,0,0,0,7.74,11.38,16.73,16.73,0,0,0,13.32,2.45c6.14-1.44,10.75-4.85,13-9.61a17.85,17.85,0,0,0,.9-11.88,18.62,18.62,0,0,0-8.56-12.25,17.87,17.87,0,0,0-9.13-2.45A20.4,20.4,0,0,0,134.54,85.16Z" style="fill:#ebebeb;opacity:0.30000000000000004"></path><path d="M129.17,105.3c1.31,5.58,6.6,9.36,12.26,8a10.75,10.75,0,0,0,7.54-5.6,10.45,10.45,0,0,0,.53-6.9c-1.57-6.69-7.38-9.52-12.92-8.22A9.5,9.5,0,0,0,131,96.23,11.27,11.27,0,0,0,129.17,105.3Z" style="fill:#ebebeb;opacity:0.8"></path><path d="M144.3,106.66a1.33,1.33,0,0,0,1.57,1,1.37,1.37,0,0,0,1-.72,1.29,1.29,0,0,0,.07-.88,1.33,1.33,0,0,0-1.65-1,1.18,1.18,0,0,0-.72.46A1.48,1.48,0,0,0,144.3,106.66Z" style="opacity:0.1"></path><path d="M131.9,98a1.31,1.31,0,0,0,1.56,1,1.38,1.38,0,0,0,1-.72,1.35,1.35,0,0,0,.06-.88,1.34,1.34,0,0,0-1.65-1,1.28,1.28,0,0,0-.72.46A1.43,1.43,0,0,0,131.9,98Z" style="opacity:0.1"></path><path d="M137.81,112.33a1,1,0,0,0,1.26-.54.91.91,0,0,0-.56-1.27,1,1,0,0,0-1.3.58.86.86,0,0,0,0,.63A1.06,1.06,0,0,0,137.81,112.33Z" style="opacity:0.1"></path><path d="M130.42,103.18a1,1,0,0,0,1.26-.55,1,1,0,0,0-.05-.87,1,1,0,0,0-.51-.4,1,1,0,0,0-1.31.58.91.91,0,0,0,0,.63A1,1,0,0,0,130.42,103.18Z" style="opacity:0.1"></path><path d="M146.72,102.81a.69.69,0,0,0,.1,1,.71.71,0,0,0,.61.16.75.75,0,0,0,.39-.27.7.7,0,0,0-.12-1,.62.62,0,0,0-.43-.14A.75.75,0,0,0,146.72,102.81Z" style="opacity:0.1"></path><path d="M133.61,100.41a.7.7,0,0,0,.1,1,.75.75,0,0,0,.62.15.71.71,0,0,0,.38-.26.72.72,0,0,0-.12-1,.73.73,0,0,0-.43-.14A.79.79,0,0,0,133.61,100.41Z" style="opacity:0.1"></path></g><g id="freepik--Table--inject-65"><path d="M35.94,452c137.14-.61,291-.62,428.12,0-137.14.62-291,.61-428.12,0Z" style="fill:#263238"></path></g><g id="freepik--character-1--inject-65"><path d="M160.68,305.74c15.63,48.56,57.24,131,81.77,114.45,36.69-24.78,66.32-85.26,78.13-109.73,6.62-13.72-59.7-45.1-65.59-32.64-8.37,17.72-25.69,54-30.7,56.59-3.74,1.92-19.52-23.34-42.63-47.87C157.78,261.19,155.69,290.23,160.68,305.74Z" style="fill:#dd6a57"></path><path d="M248.46,277.59l62.83,56.24s-48.67,96-78.79,93.73c-29-2.18-62.68-80.75-73.69-113.76s.6-58.67,26.6-26.79c26.15,32.07,35.14,44.78,36.13,44.5S248.46,277.59,248.46,277.59Z" style="fill:#ebebeb"></path><path d="M222.41,329.8a197.75,197.75,0,0,0-10.1,23.93c-1.48,4-2.75,8.14-4,12.24a94.7,94.7,0,0,0-3.06,12.4c0,.15.2.19.26.06,1.73-3.9,3.16-8,4.56-12s2.89-8.07,4.28-12.13c2.79-8.11,5.9-16.13,8.45-24.32A.21.21,0,0,0,222.41,329.8Z" style="fill:#263238"></path><path d="M246,298.81c3.21,2.54,6.21,5.38,9.27,8.11s6.08,5.5,9.07,8.3q9,8.41,17.82,17c1.61,1.57,3.21,3.13,4.8,4.73s3.17,3.62,4.87,5.3a.15.15,0,0,1-.2.21c-1.49-1.35-3.18-2.49-4.71-3.81s-3.13-2.77-4.66-4.19c-3-2.77-6-5.55-9-8.35-6-5.6-12-11.23-17.76-17-3.28-3.27-6.68-6.48-9.76-9.94A.21.21,0,0,1,246,298.81Z" style="fill:#263238"></path><path d="M313.3,325.23,310.35,331l-56.56-50.82c.32-1.62,4-10.56,6.06-16.06,0,0,3.84-17.89.4-34.82-2.86-14.22-8.73-35-1.14-36.84,11.06-2.7,21.65,22.71,26.84,37.66,5.7-6.45,11.21-11.46,15.49-13.21,14.22-5.79,48.16,54.38,40.56,68C334.67,298.09,319.54,320.08,313.3,325.23Z" style="fill:#455a64"></path><rect x="288.92" y="168.48" width="20.44" height="52.06" transform="matrix(1, 0, 0, 1, -0.41, 0.64)" style="fill:#7241C6"></rect><polygon points="301.56 324.2 297.26 324.21 291.72 220.55 306.67 220.52 301.56 324.2" style="fill:#dbdbdb"></polygon><path d="M299.41,324.21s-3.49,8.6,0,8.6S299.41,324.21,299.41,324.21Z" style="fill:#7241C6"></path><path d="M281.33,230.23c.28,8,9.52,3.08,9.52,3.08s-11.6,10.24-8.14,18.35c3.36,7.81,14.31,1.51,15.1,1.07-.61.55-11,10.24-6.7,18,4.5,8.09,14.41-.12,15.05-.65-.42.69-5.72,10-1.09,15.18,8,8.88,22.17-14.56,31.64-16.46,0,0,5.05,15.68,5.3,16.1,0,0,14-22,10.7-34.65a8.35,8.35,0,0,0-8.28-6.36s5.29-6.6,2.09-12.84c-1.66-3.2-8.25-3.4-8.25-3.4s4-5.46.81-10.83c-2.53-4.3-8.75-3.83-8.75-3.83s1.42-7-2.6-10.58C319.64,195.27,280.75,213.15,281.33,230.23Z" style="fill:#455a64"></path><path d="M329.33,212.94a.11.11,0,0,0-.05-.22c-14.22,2.76-29,10.16-39,20.8-.33.35.1,1,.53.72C303.21,225.23,314.9,218.22,329.33,212.94Z" style="fill:#263238"></path><path d="M338.43,227.52c.15-.06.06-.32-.11-.29-14.64,2.93-31.06,11.71-41.1,25.33-.34.47-.18,1.23.26.72C304.83,244.74,325.41,232.2,338.43,227.52Z" style="fill:#263238"></path><path d="M305.78,271.3c10.13-12.69,23.3-20.85,38-27.29.19-.09.05-.35-.13-.32-8.06,1.18-17,6.27-23.67,10.81a42.79,42.79,0,0,0-14.68,16.44C305.21,271.21,305.57,271.57,305.78,271.3Z" style="fill:#263238"></path><path d="M290.58,233.27c-.39.42.65.53.27,1-1.59,1.81-10.23,13.56-7.14,17.75,2.49,3.35,8.71,2.33,10.94,1l5.63-3.33-4.12,5.09a26.71,26.71,0,0,0-4.36,7.49c-1,2.67-1.25,5.58,0,7.83a5.46,5.46,0,0,0,6.18,3,16.6,16.6,0,0,0,7.29-3.95l5.84-5.08-3.84,6.69a25,25,0,0,0-2.47,5.92,10.26,10.26,0,0,0-.09,6,4.93,4.93,0,0,0,4,3.32c1.87.17,3.95-.72,5.84-1.76,3.83-2.17,7.25-5.2,10.78-8,1.76-1.43,3.52-2.87,5.36-4.23s3.77-2.71,6-3.15c-2.19.67-3.9,2.23-5.64,3.64s-3.35,3-5,4.6a73.87,73.87,0,0,1-10.59,8.77c-2,1.19-4.2,2.4-6.93,2.33a7,7,0,0,1-6.08-4.67,12.69,12.69,0,0,1-.09-7.42,27.75,27.75,0,0,1,2.65-6.64l2,1.61a19,19,0,0,1-8.56,4.75,7.94,7.94,0,0,1-5.32-.69,9,9,0,0,1-3.68-3.82c-1.69-3.23-1.15-7,0-9.91a29.36,29.36,0,0,1,4.92-8.16L295.9,255c-2.9,1.59-9.74,3.48-14.24-1.23C276.7,246.73,288.31,235.23,290.58,233.27Z" style="fill:#263238"></path><path d="M290.85,233.31A16.11,16.11,0,0,1,286,234a3.71,3.71,0,0,1-3.26-1.86,7.49,7.49,0,0,1-.39-4.27c.23-1.59.56-3.25,1-5a12.57,12.57,0,0,0-2.66,4.56,7.43,7.43,0,0,0,.12,5.7,5.23,5.23,0,0,0,2.32,2.17,5.38,5.38,0,0,0,3,.38A8.55,8.55,0,0,0,290.85,233.31Z" style="fill:#263238"></path><path d="M218.84,451.72l-9.08-65.91s18.84-21.95,8-43.84c-5.79-11.66-31.46-53.45-47.58-67.9-20.75-18.61-43.95-1.32-52.32,10C101,306.82,76.16,355,62.43,451.75Z" style="fill:#7241C6"></path><path d="M163.93,379.19a128.77,128.77,0,0,1,20.74,1.37c3.42.55,6.79,1.28,10.17,2.08,1.69.41,3.37.75,5.07,1.08a20.64,20.64,0,0,0,5.36.49c.16,0,.18.24,0,.27a35.65,35.65,0,0,1-5.06.47,34.09,34.09,0,0,1-4.92-.45c-3.47-.53-6.92-1.23-10.38-1.8-7-1.15-14-2.29-21-2.88C163.59,379.8,163.6,379.19,163.93,379.19Z" style="fill:#263238"></path><path d="M147.8,387.79A135.43,135.43,0,0,1,164.66,385c2.84-.29,5.68-.39,8.54-.41,1.36,0,2.73,0,4.09,0,1.51,0,3,.3,4.51.32.16,0,.19.26,0,.27-1.42,0-2.83.32-4.24.44s-2.83.24-4.24.36c-2.84.25-5.67.53-8.51.74-5.68.44-11.33.93-17,1.58C147.54,388.33,147.51,387.85,147.8,387.79Z" style="fill:#263238"></path><path d="M139.77,267.69s13.78,75.5,14.9,83.19,1.92,100.85,1.92,100.85H60.18s17-120.61,59.33-169.78C130.29,269.43,139.77,267.69,139.77,267.69Z" style="fill:#ebebeb"></path><path d="M170.13,274.07s26.7,56.83,30.11,69.41,5.16,43.28,5.16,43.28l7.54,65h8.16l-9.91-66.06s13.53-13.74,9.91-31.6S189,291.81,170.13,274.07Z" style="fill:#ebebeb"></path><path d="M221.1,451.72c-3-16.43-5.69-32.92-8.29-49.41l-2.56-16.51-.06-.39c6.56-8.65,10.95-19.68,10.08-30.67-1.13-11-7.19-20.66-12.56-30.12-3.78-6.35-7.81-12.55-12-18.65q6.87,8.73,12.9,18.09c5.71,9.41,12.3,19.26,13.45,30.53,1,11.39-3.24,22.7-10.14,31.67l.2-.74,2.41,16.53c2.35,16.53,4.59,33.09,6.57,49.67Z" style="fill:#263238"></path><path d="M173.53,280.35c2.05,2.62,4.14,5.21,6.23,7.79s4.17,5.18,6.29,7.74q6.31,7.71,12.73,15.32l-.13-1.19c-1.85,3.08-3.66,6.19-5.46,9.3l-.43.75.62.64,10.69,11-.31-.61c1.44,7.76,1.64,55.65,1.64,55.65s1.78-48.21.38-56l-.07-.35-.24-.25-10.68-11,.19,1.38q2.67-4.68,5.27-9.42l.36-.65-.48-.55q-6.56-7.47-13.2-14.87c-2.2-2.48-4.44-4.92-6.67-7.37S175.79,282.77,173.53,280.35Z" style="fill:#dbdbdb"></path><path d="M114.26,288.55c-38.78,49.63-81,148-68.53,165.76C59.66,474.13,113.61,404.62,113,401c-.49-2.74,12.27-60.39,23.8-103.67S123.85,276.28,114.26,288.55Z" style="fill:#dd6a57"></path><path d="M113.37,401c1.17-6.3,19.59-83,25.21-107.68,5-22.17.09-30.46-16.09-15.2C92.71,306.22,46.7,388.45,39.2,428.37,32,466.83,55.38,464.29,78.62,444.26,97.64,427.86,113.37,401,113.37,401Z" style="fill:#ebebeb"></path><path d="M110.76,411.15q9.15-44.55,22.31-88.16-9.15,44.56-22.31,88.16Z" style="fill:#263238"></path><path d="M129.05,340.12a42.89,42.89,0,0,1,5.28-10.71,29.34,29.34,0,0,1-5.28,10.71Z" style="fill:#263238"></path><path d="M139.51,270.51c-1.21,3.88-2.37,7.77-3.53,11.66l-3.44,11.67q-3.4,11.69-6.67,23.41l-.19.7.64.41q6.54,4.09,13.14,8.1l-.38-1.52L129.47,341l-.31.53.28.55q6.24,11.79,12.69,23.49,3.21,5.85,6.5,11.66c2.21,3.86,4.37,7.75,6.64,11.59-1.88-4-3.85-8-5.78-12s-3.93-8-5.93-12q-6-11.93-12.16-23.76l0,1.08L141,326.08l.57-.95-.94-.57q-6.62-4-13.27-7.91l.45,1.11q3.06-11.77,6-23.58l2.89-11.82C137.65,278.41,138.61,274.47,139.51,270.51Z" style="fill:#dbdbdb"></path><rect x="242.63" y="435.84" width="120.07" height="15.88" style="fill:#fff"></rect><path d="M362.71,435.84c-33.55.24-86.16.37-120.08.46l.46-.46,0,15.88-.5-.5,60,.15c14.95,0,45.08.14,60,.24-.29.73.07-15.93,0-15.77Zm0,0,.11,15.88v.12h-.12c-15,.1-45.06.22-60,.23l-60,.15h-.5v-.5l0-15.88v-.46h.46c34,.11,86.45.2,120.08.45Z" style="fill:#263238"></path><path d="M242.63,435.84s37.72,5.13,60,5.13,60-5.13,60-5.13Z" style="fill:#ebebeb"></path><path d="M50.31,454.6C64,465.32,90.7,460,159.21,453c9.48-1,20.6-69.74,10.43-69.22-12.82.66-62.43,6-66,6.83C73.44,397.72,41,447.33,50.31,454.6Z" style="fill:#dd6a57"></path><path d="M158.48,384.33s23.8-5.71,38.62-6.83c19.84-1.49,37.58,5.39,44.84,8.73,15.16,6.95,47,34.25,40.74,44.79-5.67,9.55-36.81-20-36.81-20s36.72,24.89,27.78,35.12S230.52,420,230.52,420s37.15,26.42,26.26,35.52c-8.22,6.87-41-24.32-41-24.32s31.78,22.93,23.62,30.37c-9,8.21-41.12-18.67-41.12-18.67-23.91,15.4-41.95,14.9-54.33,11.66l-14.08,1.53,23.66-71.05Z" style="fill:#455a64"></path><path d="M233.73,401.6c4.41,2.76,8.91,5.54,13.06,8.69s8.21,6.45,12.06,10c9.43,8.64,14,15.53,13.66,15.13-7.75-9.33-22.46-20.84-26.62-24s-8.14-6.5-12.29-9.65C233.5,401.67,233.62,401.53,233.73,401.6Z" style="fill:#263238"></path><path d="M222.08,416.4c5.49,3.78,11.07,7.33,16.4,11.35s10,8.26,15,12.62c.39.34.08.43-.32.11-5.18-4.15-10.29-7.59-15.52-11.68s-10.29-8.39-15.64-12.27A.08.08,0,1,1,222.08,416.4Z" style="fill:#263238"></path><path d="M209.79,427.31c8.69,5.34,16.37,12.29,23.75,19.27.37.35,0,.43-.44.1-7.77-6.56-13.82-11.75-23.5-19.07C209.45,427.5,209.61,427.2,209.79,427.31Z" style="fill:#263238"></path><path d="M155.58,374.88l-33.25,95.37S53,467.62,42.4,455.2c-7.55-8.88,26.47-57,59.48-66.59Z" style="fill:#ebebeb"></path><path d="M67,413.7c3.38-5.87,15.93-19.35,34.92-25.16.17-.05.29.21.12.28-13.73,5.69-31.08,19.67-34.82,25.05C67.1,414,66.89,413.85,67,413.7Z" style="fill:#263238"></path><path d="M109.23,455.84c2.48-9.44,5.46-18.74,8.46-28s6-18.6,9.24-27.82c1.83-5.21,3.63-10.44,5.64-15.58.05-.14.29-.08.25.06-2.47,9.43-5.41,18.75-8.35,28s-6,18.61-9.13,27.87q-2.64,7.85-5.64,15.57C109.6,456.22,109.15,456.12,109.23,455.84Z" style="fill:#263238"></path><path d="M156.55,373.6c-3.79.39-46.44,10.81-59,16.48-.14.07.87.42,1,.35,5.84-3,52.6-13.71,56.24-15,0,.29-2.84,9.28-2.84,9.58s.28.35.41.14C152.68,384.62,157,373.55,156.55,373.6Z" style="fill:#263238"></path><path d="M140.5,269.65c.27,3.15,10.64,23.77,24.78,22.8,9.95-.69,9.26-20.68,9.26-20.68l10.2-26.53-31.27-27S140.41,268.32,140.5,269.65Z" style="fill:#dd6a57"></path><path d="M148.9,235.85a54.28,54.28,0,0,0,26.21,34.45l9.64-25.05-31.28-27S151.41,226.21,148.9,235.85Z" style="fill:#263238"></path><path d="M226.53,211.66c-3.19,46.46-31.42,49.76-41.46,49-9.11-.64-40-4-41.68-50.54s21-59.73,41.93-59.36S229.72,165.19,226.53,211.66Z" style="fill:#dd6a57"></path><path d="M221.68,211a28.93,28.93,0,0,1-3-1.31,5.27,5.27,0,0,1-2.77-1.91,1.68,1.68,0,0,1,.43-2c1.26-.94,2.8-.66,4.18-.09a6.07,6.07,0,0,1,3.29,2.89A1.77,1.77,0,0,1,221.68,211Z" style="fill:#263238"></path><path d="M193,205.38a29.18,29.18,0,0,0,3.24,0c1.24,0,2.23.11,3.3-.62a1.67,1.67,0,0,0,.41-2c-.76-1.38-2.29-1.74-3.78-1.79a6.07,6.07,0,0,0-4.17,1.3A1.78,1.78,0,0,0,193,205.38Z" style="fill:#263238"></path><path d="M196.68,217.51c0-.13-.28.1-.3.23-.48,3.15-1.57,6.67-4.6,7.17-.1,0-.12.18,0,.18C195.32,225.26,196.72,220.57,196.68,217.51Z" style="fill:#263238"></path><path d="M194.49,213.71c-5-1.33-7.26,8.69-2.65,9.92S198.66,214.83,194.49,213.71Z" style="fill:#263238"></path><path d="M192.4,213.79c-1,.36-2.1,1.17-3.18,1-1.25-.16-1.93-1.42-2.5-2.61-.06-.12-.17-.06-.2.08-.47,1.91-.18,4.05,1.82,4.81,1.82.69,3.56-.7,4.48-2.52C193,214.24,192.8,213.64,192.4,213.79Z" style="fill:#263238"></path><path d="M214.18,220.29c0-.11.21.21.17.33-.83,3.08-1.26,6.74,1.31,8.44.08.05,0,.2-.07.16C212.28,227.93,212.9,223.07,214.18,220.29Z" style="fill:#263238"></path><path d="M217.72,217.71c5.08.81,3.11,10.9-1.6,10.15S213.46,217,217.72,217.71Z" style="fill:#263238"></path><path d="M219.7,218.79c.69.69,1.29,1.82,2.23,2.07,1.09.29,2.12-.64,3-1.55.1-.1.16,0,.14.14-.32,1.94-1.36,3.82-3.28,3.83-1.76,0-2.68-1.9-2.77-3.91C219,219,219.42,218.51,219.7,218.79Z" style="fill:#263238"></path><path d="M188.94,241.46c.48.95.88,2.17,1.94,2.63a8.48,8.48,0,0,0,3.51.35.11.11,0,0,1,.07.2,4.3,4.3,0,0,1-4.39.33,3.4,3.4,0,0,1-1.47-3.47C188.61,241.31,188.87,241.32,188.94,241.46Z" style="fill:#263238"></path><path d="M204.86,233.92s-.63,4.76-1.23,6.93c-.06.2-.61.15-1.35,0,0,0-.07,0-.09,0a10.69,10.69,0,0,1-8.94-6.61.23.23,0,0,1,.4-.21c2.28,2.88,5.29,4.3,8.66,5.29.32-.55.81-8.19,1.16-8.12,1.22.23,3.33,1.68,4.61,2.48,1.61-9.88,1.61-19.94,3.36-29.75a.3.3,0,0,1,.6,0c.74,10.54-.85,22-2.24,32.19C209.63,237.39,205.62,234.53,204.86,233.92Z" style="fill:#263238"></path><path d="M201.08,239.74a11.23,11.23,0,0,1-5.18,2.36,5,5,0,0,1-3-.52c-2-1.08-1.61-3.07-.81-4.68a12.09,12.09,0,0,1,1.58-2.37A14.57,14.57,0,0,0,201.08,239.74Z" style="fill:#263238"></path><path d="M195.9,242.1a5,5,0,0,1-3-.52c-2-1.08-1.61-3.07-.81-4.68C194.31,237.69,196.23,239.8,195.9,242.1Z" style="fill:#ff9cbd"></path><path d="M144.28,213.05c8,3.36,15.39-15.15,15.39-15.15s42.19,5.24,53.21-22.85c0,0,1.8,21.38,14.17,32.3,0,0,5.22-37.09-18-50.22,0,0-24.71-17.45-50.24,1.74C132.66,178.54,138.93,210.79,144.28,213.05Z" style="fill:#263238"></path><path d="M213.23,174a32.86,32.86,0,0,1-5.88,12.48A34,34,0,0,1,197,195.74a29.58,29.58,0,0,1-3.13,1.58l-1.58.74c-.55.2-1.1.38-1.66.56-1.11.34-2.21.73-3.33,1s-2.28.42-3.42.61c-.57.09-1.14.2-1.71.27l-1.73.08-3.44.16c-2.29-.11-4.57-.34-6.82-.6,2.29-.21,4.54-.19,6.78-.42l3.34-.45,1.67-.22c.54-.11,1.08-.27,1.62-.4,1.09-.28,2.16-.55,3.25-.79s2.09-.75,3.13-1.12l1.57-.56,1.49-.73a27.4,27.4,0,0,0,2.94-1.54,38.88,38.88,0,0,0,10.17-8.5,41.86,41.86,0,0,0,4-5.44A39.71,39.71,0,0,0,213.23,174Z" style="fill:#263238"></path><path d="M153,211.49s-7.8-16-14.89-13.39-2.79,24.56,4.43,28.61a7.89,7.89,0,0,0,11.1-2.54Z" style="fill:#dd6a57"></path><path d="M139.49,204.38a.1.1,0,0,0-.07.19c5,3,7.08,8.44,8.25,13.91-1.28-2.24-3.29-3.67-6.25-2.19-.16.08-.06.32.1.31a4.87,4.87,0,0,1,5,2.5,23.24,23.24,0,0,1,1.86,4.66c.18.52,1.09.4,1-.18a.59.59,0,0,1,0-.13C150.56,216.63,146.74,206.22,139.49,204.38Z" style="fill:#263238"></path><path d="M150.87,204.23s18.1-17.47,29.19-21.71c7.09-2.71,27.75-.68,34.55,1A106.33,106.33,0,0,1,227,187.89l2.71-1.81c1-.47,2.65-.84,3.6-1.59,3.88-3.06,4.56-7.52,4.05-13.08-.83-8.95-10.17-12.93-14.31-18s-16.77-16.35-26.59-16.72c-14.5-.54-24.73,6.13-28.56,7-13.38,3-25.4,7.19-31.74,17.47-7.39,12-6.85,22.15-9.25,27.12-4.43,9.18-3.87,20.09,1.92,26.07,3.44,3.56,5.95,4.36,5.95,4.36l4.14,4.16Z" style="fill:#7241C6"></path><path d="M229.52,185.33a31.08,31.08,0,0,0-3.44-3,8.19,8.19,0,0,0,4.32-3.46c1.6-2.34,1.9-5.19,2.9-7.78.11-.3-.39-.46-.46-.16a19.84,19.84,0,0,1-3.19,6.92,14.24,14.24,0,0,1-4.38,3.87,26.48,26.48,0,0,0-3.06-1.81c.27-.2.52-.41.75-.61a9.37,9.37,0,0,0,1.48-1.6,9.69,9.69,0,0,0,1.72-3.91c.06-.3-.42-.34-.48,0a8.37,8.37,0,0,1-1.6,3.69,8.62,8.62,0,0,1-1.38,1.45,8.87,8.87,0,0,1-.78.59l-.24.15c-.28-.13-.54-.29-.83-.41a72.29,72.29,0,0,0-11.34-3.62c-1-.25-2-.46-2.94-.68a7,7,0,0,0,1.16-1.07c1.3-1.52,1.77-3.6,2.21-5.51,0-.05-.08-.09-.09,0-.54,1.89-1.11,3.94-2.6,5.32a3.84,3.84,0,0,1-2.05,1c-.78-.16-1.56-.29-2.34-.44-1.38-.82-2-2.62-2.35-4.09a11.67,11.67,0,0,1,.17-5.69c.08-.3-.36-.46-.45-.16a15.63,15.63,0,0,0-.68,4.95,10.27,10.27,0,0,0,.89,4.58,54.81,54.81,0,0,0-11.38-.62,33.81,33.81,0,0,0-8.4,1.64,17.67,17.67,0,0,1-3.61-2.45,9,9,0,0,1-2.69-4.46c-.08-.3-.57-.2-.48.1.82,2.82,2.74,6,5.56,7.21a45.35,45.35,0,0,0-7.92,3.82l-.65-.44a9.33,9.33,0,0,1-1.55-1.25,12.17,12.17,0,0,1-2.43-3.27c-1.32-2.67-1.56-5.57-1.76-8.49,0-.27-.5-.25-.48,0,.17,3.06.29,6.3,1.36,9.2a9.88,9.88,0,0,0,2.31,3.76,8.44,8.44,0,0,0,1.76,1.32l0,0c-.21.13-.42.25-.63.39l-1.58,1a5.19,5.19,0,0,1-3.41-.79c-2-1.36-2.79-3.53-3.26-5.78a.24.24,0,1,0-.46.15c.76,2.29,1.31,5.14,3.42,6.61a5.69,5.69,0,0,0,2.1.88,107.57,107.57,0,0,0-12.15,9.19c0-.28-.1-.55-.16-.82a13.32,13.32,0,0,0-.9-2.45,11.68,11.68,0,0,0-1.34-2.19c-.52-.7-1-1.41-1.6-2.07a.24.24,0,0,0-.37.32,11.73,11.73,0,0,1,1.33,2.16c.33.75.62,1.52.9,2.29s.49,1.53.7,2.3c.11.41.18.83.3,1.23,0,.07.05.15.08.23-.79.74-1.6,1.44-2.35,2.22s-1.25,1.34-1.85,2l-.91-.3a16.66,16.66,0,0,1-1.89-.83,20.56,20.56,0,0,1-3.59-2.2,27,27,0,0,1-3.13-2.72,9.91,9.91,0,0,1-2.26-3.89c-.09-.29-.56-.21-.47.09a17.44,17.44,0,0,0,4.44,7.91,13.11,13.11,0,0,0,4,2.44,12.44,12.44,0,0,0,2.8.75,53,53,0,0,0-5,6.92c-2.36,3.95-3.52,8.13-5,12.43-.11.3.38.46.45.16.88-3.78,3.13-7.2,5.26-10.4a57.63,57.63,0,0,1,7.14-8.68,122.72,122.72,0,0,1,17-13.94c5.85-4.06,11.64-7.82,18.8-8.92,6.64-1,13.46-.15,20,1.28,7.72,1.71,16.36,3.91,22.74,8.8C229.4,185.9,229.74,185.55,229.52,185.33Z" style="opacity:0.1"></path></g><g id="freepik--Microscope--inject-65"><path d="M458.81,451.76H448S445.42,412,421.35,410c-12.74-1.06-24.48,8-33.63,18.21,9.06-10.28,25.1-23.54,40.4-23.54C451.17,404.67,458.81,451.76,458.81,451.76Z" style="fill:#263238"></path><polygon points="387.48 328.57 404.06 294.79 409.66 302.38 395.45 328.57 387.48 328.57" style="fill:#263238"></polygon><rect x="385.4" y="312.35" width="40.52" height="9.72" transform="translate(-64.18 528) rotate(-62.19)" style="fill:#455a64"></rect><polygon points="400.51 337.4 405.67 336 421.23 307.17 419.42 301.56 400.51 337.4" style="fill:#37474f"></polygon><rect x="350.07" y="331.12" width="7" height="25.66" rx="2.65" transform="translate(169.89 -113.84) rotate(23.93)" style="fill:#37474f"></rect><rect x="369.78" y="342.95" width="7" height="25.66" rx="2.65" transform="translate(176.35 -120.81) rotate(23.92)" style="fill:#37474f"></rect><rect x="356.1" y="338.42" width="9.72" height="33.05" rx="3.59" transform="translate(174.94 -115.88) rotate(23.92)" style="fill:#37474f"></rect><rect x="393.71" y="240.09" width="9.72" height="33.05" rx="3.59" transform="translate(138.34 -139.61) rotate(23.93)" style="fill:#37474f"></rect><rect x="408.25" y="246.54" width="9.72" height="33.05" rx="3.59" transform="translate(142.18 -144.93) rotate(23.92)" style="fill:#37474f"></rect><path d="M354.41,332.82l34.8-72.45s9.93.34,27.14,12.27l-37,72.27A69.35,69.35,0,0,1,354.41,332.82Z" style="fill:#37474f"></path><path d="M386.3,351s-32.79-9.68-41.8-18.55l2.87-6.46a88.3,88.3,0,0,1,41.8,18.54Z" style="fill:#455a64"></path><path d="M417.6,274.7s-13-11.07-30.6-14.39l3-6.4c18.62-.33,30.6,14.39,30.6,14.39Z" style="fill:#455a64"></path><path d="M393.43,318.27s-14.34-9.49-26.7-12.55a1.34,1.34,0,0,1-.68-1.89l3.37-7.16a1.53,1.53,0,0,1,1.88-.68c16.64,4.22,26.7,12.56,26.7,12.56a1.4,1.4,0,0,1,.68,1.88l-3.37,7.17A1.41,1.41,0,0,1,393.43,318.27Z" style="fill:#455a64"></path><path d="M416.55,309.44l2.59-1.15s36.19,16,34.31,59.19c-1.24,28.59-22.09,48.35-22.09,48.35s25.36-32.72,15.88-63S416.55,309.44,416.55,309.44Z" style="fill:#455a64"></path><path d="M450.53,370.46c-2.08,26.36-19.17,45.37-19.17,45.37H405.41C393.51,400.17,374.58,391,374.58,391l20.74,3.64,1.85-1,3.64-1.86s5.26,8,13.16,7.85a12.23,12.23,0,0,0,4.69-1.05c9.24-4,13.9-28.5,9.58-43.15S405,331.81,405,331.81l11.55-22.36C437.19,318.71,452.6,344.11,450.53,370.46Z" style="fill:#37474f"></path><path d="M414,399.71s-6.79,2.31-16.81-6l3.64-1.86s5.26,8,13.16,7.85Z" style="fill:#455a64"></path><path d="M448,451.76H370.61c1.93-3,5.28-8.45,9.72-14.43,0,0,.09-.14.28-.39l.35-.47.22-.3.68-.87a2,2,0,0,1,.18-.25c.24-.3.48-.62.73-.92.38-.5.82-1,1.29-1.62.33-.41.67-.81,1-1.22.53-.64,1.1-1.31,1.7-2,.31-.36.62-.72,1-1.08,9.15-10.2,20.89-19.27,33.63-18.21C445.42,412,448,451.76,448,451.76Z" style="fill:#455a64"></path><rect x="316.19" y="382.23" width="76.34" height="9.67" transform="translate(33.45 -28.15) rotate(4.77)" style="fill:#263238"></rect><rect x="392.37" y="386.11" width="16.92" height="9.67" transform="translate(33.94 -32.01) rotate(4.78)" style="fill:#37474f"></rect><circle cx="383.26" cy="445.39" r="2.62" style="fill:#263238"></circle><circle cx="437.65" cy="445.39" r="2.62" style="fill:#263238"></circle><path d="M418.7,418.44a2.62,2.62,0,1,1-2.62-2.61A2.62,2.62,0,0,1,418.7,418.44Z" style="fill:#263238"></path><path d="M398.57,277.9a2.62,2.62,0,1,1-2.62-2.62A2.62,2.62,0,0,1,398.57,277.9Z" style="fill:#263238"></path><path d="M375.9,326a2.62,2.62,0,1,1-2.62-2.62A2.62,2.62,0,0,1,375.9,326Z" style="fill:#263238"></path><path d="M423.85,326.88a2.62,2.62,0,1,1-2.62-2.62A2.62,2.62,0,0,1,423.85,326.88Z" style="fill:#263238"></path><path d="M404.26,402.57a2.62,2.62,0,1,1-2.62-2.62A2.62,2.62,0,0,1,404.26,402.57Z" style="fill:#263238"></path></g><g id="freepik--speech-bubble-2--inject-65"><path d="M402.24,397.69a45.51,45.51,0,0,1-76.06,28.8l-22.78,3.34,11.4-19.69a45.53,45.53,0,1,1,87.44-12.45Z" style="fill:#fff"></path><path d="M402.24,397.69a45.8,45.8,0,0,1-9.19,23.08,49,49,0,0,1-4.12,4.75,51.74,51.74,0,0,1-4.81,4.07,44.78,44.78,0,0,1-11,6.12,44.16,44.16,0,0,1-18.58,3,40.3,40.3,0,0,1-6.3-.66A46,46,0,0,1,325.73,427l.54.17-22.75,3.49-1.65.25.83-1.45L314,409.7l0,.78a46.07,46.07,0,0,1,2.8-40.58A46.63,46.63,0,0,1,331,354.72a46.33,46.33,0,0,1,40-5.39,46.55,46.55,0,0,1,17.56,10.77A45.78,45.78,0,0,1,402.24,397.69Zm0,0a45,45,0,0,0-51.63-49.26,44.75,44.75,0,0,0-18.8,7.42,46.87,46.87,0,0,0-13.62,14.86A45,45,0,0,0,312.41,390a45.61,45.61,0,0,0,3.21,19.84l.16.4-.22.38L304.1,430.24l-.81-1.2,22.79-3.2.32,0,.22.21a44.88,44.88,0,0,0,21.8,11.23,38.92,38.92,0,0,0,6.18.75A43.49,43.49,0,0,0,373,435.3a42.4,42.4,0,0,0,11-5.92,52.4,52.4,0,0,0,4.81-4,51.34,51.34,0,0,0,4.14-4.7A45.82,45.82,0,0,0,402.24,397.69Z" style="fill:#263238"></path><path d="M363.73,384c-2.28,9.75-11.54,16.37-21.45,14.05-5.94-1.39-10.82-4.78-13.18-9.79a18.19,18.19,0,0,1-.93-12.08c2.75-11.7,12.91-16.65,22.61-14.38a16.65,16.65,0,0,1,9.83,6.33A19.66,19.66,0,0,1,363.73,384Z" style="fill:#7241C6;opacity:0.30000000000000004"></path><path d="M346.25,398.76a17.55,17.55,0,0,1-4.05-.47c-6.27-1.47-11-5-13.33-9.94a18.39,18.39,0,0,1-.95-12.25,18.54,18.54,0,0,1,22.89-14.54,17.13,17.13,0,0,1,10,6.44A20,20,0,0,1,364,384.06h0a19.37,19.37,0,0,1-8,11.69A17.39,17.39,0,0,1,346.25,398.76Zm-.1-35.75a16.58,16.58,0,0,0-8.41,2.25,17.21,17.21,0,0,0-7.88,11.3,16.45,16.45,0,0,0,.82,10.93c2.06,4.39,6.31,7.53,12,8.85a15.39,15.39,0,0,0,12.24-2.25A17.29,17.29,0,0,0,362,383.6h0a17.92,17.92,0,0,0-2.82-14.4,14.91,14.91,0,0,0-8.87-5.69A18.32,18.32,0,0,0,346.15,363Z" style="fill:#7241C6;opacity:0.30000000000000004"></path><path d="M355.45,382.09A9.65,9.65,0,0,1,344,389.61a10,10,0,0,1-7-5.24,10.38,10.38,0,0,1,11.6-14.17,9,9,0,0,1,5.27,3.39A10.53,10.53,0,0,1,355.45,382.09Z" style="fill:#7241C6;opacity:0.8"></path><path d="M342.55,374.05a1.23,1.23,0,0,1-1.47,1,1.26,1.26,0,0,1-.9-.67,1.18,1.18,0,0,1-.06-.82,1.25,1.25,0,0,1,1.55-1,1.14,1.14,0,0,1,.67.43A1.34,1.34,0,0,1,342.55,374.05Z" style="opacity:0.1"></path><path d="M342,385.23a1.22,1.22,0,0,1-1.46,1,1.26,1.26,0,0,1-.91-.67,1.24,1.24,0,0,1-.06-.82,1.26,1.26,0,0,1,1.55-1,1.14,1.14,0,0,1,.67.43A1.31,1.31,0,0,1,342,385.23Z" style="opacity:0.1"></path><path d="M343.84,376.76a.9.9,0,0,1-1.18-.5.93.93,0,0,1,0-.83,1,1,0,0,1,.47-.37.92.92,0,0,1,1.23.55.86.86,0,0,1,0,.59A1,1,0,0,1,343.84,376.76Z" style="opacity:0.1"></path><path d="M354.28,380.1a.91.91,0,0,1-1.18-.51.93.93,0,0,1,0-.82.85.85,0,0,1,.48-.37.91.91,0,0,1,1.22.54.86.86,0,0,1,0,.59A1,1,0,0,1,354.28,380.1Z" style="opacity:0.1"></path><path d="M340.18,377.1a.64.64,0,0,1-.1.92.68.68,0,0,1-.57.15.76.76,0,0,1-.36-.25.67.67,0,0,1,.11-1,.59.59,0,0,1,.41-.13A.67.67,0,0,1,340.18,377.1Z" style="opacity:0.1"></path><path d="M353.05,384a.65.65,0,0,1-.1.92.68.68,0,0,1-.57.15.72.72,0,0,1-.36-.25.66.66,0,0,1,.11-1,.58.58,0,0,1,.4-.13A.69.69,0,0,1,353.05,384Z" style="opacity:0.1"></path><path d="M391.59,398.44c-1.62,6.92-8.19,11.63-15.23,10-4.22-1-7.68-3.39-9.36-6.95a12.93,12.93,0,0,1-.65-8.58c1.94-8.31,9.16-11.83,16-10.21a11.84,11.84,0,0,1,7,4.49A14,14,0,0,1,391.59,398.44Z" style="fill:#7241C6;opacity:0.30000000000000004"></path><path d="M379.18,409.22a12.9,12.9,0,0,1-2.94-.35c-4.54-1.06-8-3.63-9.66-7.22a13.3,13.3,0,0,1-.7-8.88,13.48,13.48,0,0,1,16.6-10.55,12.47,12.47,0,0,1,7.28,4.69,14.44,14.44,0,0,1,2.3,11.64,14.07,14.07,0,0,1-5.78,8.48A12.69,12.69,0,0,1,379.18,409.22Zm-.07-25.39a11.4,11.4,0,0,0-5.82,1.56,11.91,11.91,0,0,0-5.46,7.83,11.36,11.36,0,0,0,.56,7.58c1.42,3,4.37,5.2,8.31,6.12a10.65,10.65,0,0,0,8.46-1.55,12,12,0,0,0,4.95-7.28h0a12.39,12.39,0,0,0-2-10,10.31,10.31,0,0,0-6.12-3.93A12.78,12.78,0,0,0,379.11,383.83Z" style="fill:#7241C6;opacity:0.30000000000000004"></path><path d="M385.71,397.09a6.86,6.86,0,0,1-8.15,5.34,7.12,7.12,0,0,1-5-3.72,7.36,7.36,0,0,1,8.24-10.06,6.33,6.33,0,0,1,3.74,2.4A7.49,7.49,0,0,1,385.71,397.09Z" style="fill:#7241C6;opacity:0.8"></path><path d="M382.84,400.11a.88.88,0,0,1-1,.68.83.83,0,0,1-.69-1.06.89.89,0,0,1,1.1-.7.85.85,0,0,1,.48.3A1,1,0,0,1,382.84,400.11Z" style="opacity:0.1"></path><path d="M376,395.91a.88.88,0,0,1-1,.69.92.92,0,0,1-.64-.48.88.88,0,0,1-.05-.59.89.89,0,0,1,1.1-.7.83.83,0,0,1,.48.31A.94.94,0,0,1,376,395.91Z" style="opacity:0.1"></path><path d="M376.5,393.53a.65.65,0,0,1-.84-.36.65.65,0,0,1,0-.58.68.68,0,0,1,.34-.27.66.66,0,0,1,.87.39.61.61,0,0,1,0,.42A.7.7,0,0,1,376.5,393.53Z" style="opacity:0.1"></path><path d="M385,395.41a.64.64,0,0,1-.84-.36.69.69,0,0,1,0-.58.66.66,0,0,1,.34-.26.64.64,0,0,1,.87.39.58.58,0,0,1,0,.41A.7.7,0,0,1,385,395.41Z" style="opacity:0.1"></path><path d="M374.21,393.47a.46.46,0,0,1-.07.65.48.48,0,0,1-.41.11.47.47,0,0,1-.25-.18.48.48,0,0,1,.36-.78A.51.51,0,0,1,374.21,393.47Z" style="opacity:0.1"></path><path d="M383.71,392.89a.48.48,0,0,1-.07.66.52.52,0,0,1-.41.1.5.5,0,0,1-.18-.86.43.43,0,0,1,.29-.09A.52.52,0,0,1,383.71,392.89Z" style="opacity:0.1"></path><path d="M364.65,417.27c-1.49,6.35-7.52,10.67-14,9.15-3.88-.9-7.06-3.11-8.59-6.37a11.82,11.82,0,0,1-.6-7.87c1.78-7.62,8.41-10.85,14.72-9.37a10.84,10.84,0,0,1,6.41,4.12A12.84,12.84,0,0,1,364.65,417.27Z" style="fill:#7241C6;opacity:0.30000000000000004"></path><path d="M353.27,427.24a12.11,12.11,0,0,1-2.73-.32c-4.19-1-7.35-3.35-8.92-6.67a12.32,12.32,0,0,1-.64-8.2,12.43,12.43,0,0,1,15.33-9.74,11.51,11.51,0,0,1,6.73,4.33,13.4,13.4,0,0,1,2.12,10.75h0a12.91,12.91,0,0,1-5.34,7.82A11.64,11.64,0,0,1,353.27,427.24ZM353.2,404a10.34,10.34,0,0,0-5.3,1.42,10.83,10.83,0,0,0-5,7.13,10.32,10.32,0,0,0,.52,6.9c1.29,2.76,4,4.73,7.56,5.57a9.71,9.71,0,0,0,7.71-1.41,11,11,0,0,0,4.5-6.63h0a11.31,11.31,0,0,0-1.78-9.1,9.39,9.39,0,0,0-5.58-3.57A11.41,11.41,0,0,0,353.2,404Z" style="fill:#7241C6;opacity:0.30000000000000004"></path><path d="M359.26,416a6.3,6.3,0,0,1-7.49,4.9,6.58,6.58,0,0,1-4.6-3.42,6.77,6.77,0,0,1,7.57-9.23,5.86,5.86,0,0,1,3.43,2.21A6.93,6.93,0,0,1,359.26,416Z" style="fill:#7241C6;opacity:0.8"></path><path d="M350,416.85a.82.82,0,0,1-1.54.19.84.84,0,0,1-.05-.53.82.82,0,0,1,1-.65.73.73,0,0,1,.44.29A.89.89,0,0,1,350,416.85Z" style="opacity:0.1"></path><path d="M357.59,411.58a.79.79,0,0,1-.95.62.82.82,0,0,1-.59-.43.81.81,0,0,1,0-.54.82.82,0,0,1,1-.64.75.75,0,0,1,.44.28A.86.86,0,0,1,357.59,411.58Z" style="opacity:0.1"></path><path d="M354,420.32a.6.6,0,0,1-.77-.33.67.67,0,0,1,0-.54.62.62,0,0,1,.32-.24.59.59,0,0,1,.79.36.55.55,0,0,1,0,.38A.69.69,0,0,1,354,420.32Z" style="opacity:0.1"></path><path d="M358.49,414.73a.58.58,0,0,1-.76-.33.6.6,0,0,1,0-.54.56.56,0,0,1,.31-.24.6.6,0,0,1,.8.36.55.55,0,0,1,0,.38A.63.63,0,0,1,358.49,414.73Z" style="opacity:0.1"></path><path d="M348.55,414.5a.45.45,0,0,1-.44.7.39.39,0,0,1-.23-.16.42.42,0,0,1,.07-.63.37.37,0,0,1,.26-.08A.47.47,0,0,1,348.55,414.5Z" style="opacity:0.1"></path><path d="M356.55,413a.43.43,0,0,1-.06.6.46.46,0,0,1-.38.1.48.48,0,0,1-.23-.16A.43.43,0,0,1,356,413a.41.41,0,0,1,.26-.09A.52.52,0,0,1,356.55,413Z" style="opacity:0.1"></path></g><g id="freepik--speech-bubble-1--inject-65"><path d="M45.05,130.22A45.51,45.51,0,0,0,121.11,159l22.78,3.34-11.4-19.69a45.53,45.53,0,1,0-87.44-12.45Z" style="fill:#fff"></path><path d="M58.68,92.63A45.41,45.41,0,0,1,96.82,80a45.89,45.89,0,0,1,19.43,7.29,46.53,46.53,0,0,1,14.26,15.18,46,46,0,0,1,2.8,40.58l-.05-.78L144.59,162l.83,1.45-1.65-.25L121,159.67l.54-.17A45.94,45.94,0,0,1,99,170.62a40.3,40.3,0,0,1-6.3.66,44,44,0,0,1-18.58-3.05,45.08,45.08,0,0,1-11-6.11,50.34,50.34,0,0,1-4.8-4.07,49,49,0,0,1-4.13-4.75,45.77,45.77,0,0,1,4.44-60.67Zm-4.3,60.57a49.87,49.87,0,0,0,4.14,4.7,51,51,0,0,0,4.8,4,42.3,42.3,0,0,0,11,5.92,43.44,43.44,0,0,0,18.38,2.69,40,40,0,0,0,6.18-.75,45,45,0,0,0,21.8-11.23l.22-.21.32,0,22.8,3.19-.82,1.21-11.46-19.66-.22-.37.17-.4a45.46,45.46,0,0,0,3.2-19.84,44.91,44.91,0,0,0-5.78-19.26,46.87,46.87,0,0,0-13.62-14.86A44.9,44.9,0,0,0,96.68,81a45.55,45.55,0,0,0-20.25,1.52A45,45,0,0,0,54.38,153.2Z" style="fill:#263238"></path><path d="M114,150.93h.23l.25,0,.14-.05h0l.08,0h0l.09-.09,0,0c0-.06.14-.17.14-.25,0,.09,0,.1,0,0l0-.07a1,1,0,0,0,0-.17h0c-.78-2.28-.67-5-.4-7.89a23.58,23.58,0,0,1,5.86-1.74h0a.43.43,0,0,1,0-.05l0-.17a.83.83,0,0,1,0-.15v0h0c0-.09,0-.17,0-.26s0-.1,0-.15h0v0l-.06-.26a.75.75,0,0,0,0-.16,21.49,21.49,0,0,0-5.72,1.59c0-.06,0-.12,0-.18C115.39,135,116,129,110.48,126a11.09,11.09,0,0,0-8.3-.86,33.15,33.15,0,0,0-5.92,2.19c-.05-5.75-.23-11.65-6.53-15.32-4.23-2.47-10.6-1.11-18.94,4-.54.33-1.08.67-1.6,1l-.27-1.34c-1.18-6-2.21-11.16-5.74-12.29a.63.63,0,1,0-.39,1.19c2.84.91,3.84,6,4.9,11.34.12.62.25,1.23.37,1.86a84.46,84.46,0,0,0-8.38,6.55.62.62,0,0,0,0,.89.63.63,0,0,0,.88,0,85.05,85.05,0,0,1,7.82-6.15c1.38,6.39,3.42,12.71,9.23,14.25h0c5.73,1.5,11.28-1.17,16.64-3.75l.78-.37c.09,5,.61,10,5.53,13.31,4.42,3,8.82,1.72,12.79.21C113.1,145.67,113.06,148.51,114,150.93ZM73.05,128.5c-1.81-2.68-2.8-6.42-3.59-10.15,4.07-2.72,8.92-5.37,13.23-6.12ZM77.49,132a8,8,0,0,1-3.62-2.45L84.26,112a8.52,8.52,0,0,1,4.84,1l.72.45Zm6.41.23a14,14,0,0,1-5.12.09l12-18.11a10,10,0,0,1,2.55,3.15.74.74,0,0,0-.27.23L84,132A.59.59,0,0,0,83.9,132.26Zm9.81-3.77a51.58,51.58,0,0,1-8.15,3.37L94,118.65c1,2.7,1,5.8,1.06,9v.23Zm2.56.17c3.35-1.57,6.57-2.85,9.62-2.72L97.51,137C96.45,134.53,96.31,131.66,96.27,128.66Zm1.87,9.6.06-.06,9.09-12,0-.06a8.43,8.43,0,0,1,2.54.94,8.71,8.71,0,0,1,1,.64L100.7,141.11A10,10,0,0,1,98.14,138.26Zm6.6,4.71a9,9,0,0,1-3-1.15l10.06-13.29a7.41,7.41,0,0,1,1.74,3.28l-8.68,10.59A.59.59,0,0,0,104.74,143Zm1.15.14,7.93-9.68a34.15,34.15,0,0,1-.26,7.13c0,.27,0,.55-.08.82C111,142.35,108.45,143.25,105.89,143.11Z" style="fill:#455a64"></path><path d="M113.92,134.11a4.76,4.76,0,1,1,4.76-4.76A4.77,4.77,0,0,1,113.92,134.11Zm0-8.52a3.76,3.76,0,1,0,3.76,3.76A3.77,3.77,0,0,0,113.92,125.59Z" style="fill:#7241C6"></path><rect x="113.42" y="110.09" width="1" height="14.99" style="fill:#7241C6"></rect><path d="M80.34,138.19a4.76,4.76,0,1,1,4.76-4.76A4.76,4.76,0,0,1,80.34,138.19Zm0-8.52a3.76,3.76,0,1,0,3.76,3.76A3.76,3.76,0,0,0,80.34,129.67Z" style="fill:#7241C6"></path><polygon points="73.72 142.79 70.2 142.79 70.2 141.79 73.31 141.79 78.43 136.67 79.14 137.38 73.72 142.79" style="fill:#7241C6"></polygon><path d="M107.27,102.8a103.48,103.48,0,0,1,14.52,0,102,102,0,0,1-14.52,0Z" style="fill:#263238"></path><path d="M107.27,105.25a103.48,103.48,0,0,1,14.52,0,103.48,103.48,0,0,1-14.52,0Z" style="fill:#263238"></path><path d="M107.27,107.7a40.93,40.93,0,0,1,9.19,0,41.53,41.53,0,0,1-9.19,0Z" style="fill:#263238"></path><path d="M57.73,139.66a58.58,58.58,0,0,1,11,0,59.44,59.44,0,0,1-11,0Z" style="fill:#263238"></path><path d="M57.73,142.1a41.62,41.62,0,0,1,9.2,0,41,41,0,0,1-9.2,0Z" style="fill:#263238"></path></g></svg>