<svg class="img-fluid" id="outputsvg" xmlns="http://www.w3.org/2000/svg" style="transform: matrix(1.11388, 0, 0, 1.11388, 0, 0); transform-origin: 50% 50%; cursor: move; max-height: none; transition: transform 200ms ease-in-out;" width="500" height="500" viewBox="0 0 5000 5000"><g id="lzKWrqjnWaBlz04V2WVkZf" fill="rgb(87,28,134)" style="transform: none;"><g style="transform: none;"><path id="pkRurcpco" d="M2505 4181 c-85 -21 -166 -87 -207 -169 -22 -46 -23 -55 -25 -364 -3 -298 -2 -318 15 -318 21 0 40 21 73 80 13 25 29 51 36 60 7 8 32 42 57 76 50 67 228 258 349 373 53 51 77 81 77 97 0 15 -5 22 -12 19 -7 -3 -22 9 -33 25 -11 17 -46 48 -77 70 -79 52 -170 71 -253 51z"></path><path id="pmR9cAAxs" d="M1675 4164 c-69 -22 -126 -66 -166 -129 -41 -65 -74 -83 -160 -88 -36 -3 -86 -14 -112 -25 -56 -25 -135 -102 -162 -157 -28 -58 -30 -155 -6 -239 10 -38 17 -76 14 -85 -13 -36 -36 -51 -78 -51 -110 0 -208 -36 -274 -100 -49 -48 -75 -97 -90 -171 -7 -31 -18 -65 -26 -75 -20 -26 -18 -47 6 -98 40 -87 148 -166 225 -166 67 0 92 -11 104 -44 64 -176 157 -243 323 -234 74 5 83 3 104 -18 28 -28 31 -83 6 -113 -44 -53 -248 -44 -350 15 -27 14 -61 33 -76 41 -15 8 -50 47 -77 86 -71 102 -70 102 -120 116 -63 18 -133 55 -175 92 -39 35 -39 34 -24 -9 13 -37 5 -55 -52 -114 -93 -98 -116 -217 -65 -323 31 -62 105 -133 174 -166 92 -43 100 -67 56 -164 -21 -45 -27 -73 -26 -125 1 -150 93 -263 254 -311 96 -28 103 -46 63 -179 -48 -164 53 -358 233 -443 63 -30 75 -32 187 -34 118 -2 120 -2 143 -30 75 -93 99 -116 145 -141 45 -23 64 -27 142 -27 81 0 95 3 143 29 60 33 101 76 134 139 22 40 23 52 23 292 l0 250 -27 47 c-57 95 -182 173 -305 188 -105 13 -179 -6 -295 -76 -75 -46 -115 -43 -141 11 -22 47 -22 48 15 90 34 40 111 82 209 116 150 51 342 17 507 -92 l32 -21 0 521 0 521 -47 -37 c-146 -111 -333 -140 -499 -78 -38 15 -75 27 -81 27 -7 1 -13 5 -13 10 0 4 -5 8 -11 8 -6 0 -16 6 -24 12 -7 7 -38 37 -69 66 -31 29 -56 57 -56 62 0 4 -4 10 -8 12 -9 3 -62 120 -62 136 0 5 -20 17 -44 25 -43 15 -151 83 -151 95 -1 4 -12 25 -26 47 -36 56 -49 99 -49 161 0 45 4 56 26 73 61 48 126 12 138 -77 19 -144 199 -205 306 -103 31 30 40 47 51 100 18 93 55 120 123 90 37 -17 48 -54 36 -119 -21 -113 -97 -211 -197 -257 l-53 -24 16 -31 c73 -141 267 -221 425 -175 129 38 203 122 240 272 21 85 23 115 26 522 3 415 3 433 -17 486 -27 73 -88 139 -156 173 -70 34 -183 42 -259 18z"></path><path id="pNjAQFDl0" d="M2270 2489 l0 -300 33 25 c18 14 64 40 102 58 63 29 81 33 176 36 123 5 188 -10 285 -64 109 -60 200 -169 238 -286 3 -10 34 -31 70 -47 112 -51 191 -157 203 -273 7 -70 -20 -108 -76 -108 -53 0 -70 17 -86 89 -19 79 -46 118 -99 142 -55 25 -112 24 -166 -3 -56 -28 -86 -73 -95 -139 -9 -64 -32 -89 -83 -89 -28 0 -45 7 -62 25 -20 21 -22 31 -17 78 9 87 42 150 113 216 34 33 79 65 98 72 41 15 43 22 18 64 -33 53 -95 107 -162 138 -57 27 -76 31 -155 32 -78 0 -97 -4 -145 -27 -82 -41 -126 -82 -160 -151 l-31 -63 3 -504 3 -505 32 -66 c60 -122 166 -189 297 -189 124 0 226 54 290 155 38 59 43 61 144 68 123 10 238 96 281 213 26 69 26 96 0 197 -32 127 -18 147 108 154 166 9 280 103 317 262 8 34 22 71 31 81 19 21 15 39 -21 111 -42 85 -115 134 -220 148 -77 11 -93 24 -118 93 -24 67 -94 140 -158 168 -45 19 -64 22 -131 17 -95 -8 -122 1 -136 46 -14 41 -2 80 31 100 60 38 208 27 316 -23 74 -35 179 -130 213 -195 22 -41 29 -46 91 -65 37 -11 96 -40 131 -63 l64 -43 -5 41 c-4 40 -1 46 57 109 64 71 91 132 91 207 0 24 5 39 15 43 8 3 15 10 15 17 0 8 -24 9 -82 4 -181 -15 -335 44 -475 181 -107 104 -130 109 -190 39 -50 -60 -147 -136 -204 -163 -262 -120 -581 -40 -719 182 -21 33 -42 56 -52 56 -17 0 -18 -21 -18 -301z"></path></g></g><g id="l209HYNigqgfMIZnBs5SP86" fill="rgb(148,52,234)" style="transform: none;"><g style="transform: none;"><path id="pfZZ5Duz9" d="M3262 4345 c-232 -141 -722 -596 -865 -805 -17 -25 -33 -47 -37 -50 -3 -3 -17 -26 -30 -52 -14 -27 -28 -48 -32 -48 -3 0 -23 -51 -43 -112 -65 -200 -57 -355 27 -526 62 -126 192 -230 333 -266 85 -21 213 -33 260 -23 226 48 279 75 405 209 l56 59 86 -85 c64 -62 107 -94 160 -120 237 -115 544 -72 713 99 66 68 135 190 154 275 17 75 13 219 -9 304 -50 198 -162 359 -450 647 -266 266 -446 417 -610 512 l-45 26 -73 -44z m38 -457 c6 -13 40 -135 76 -273 36 -137 67 -252 70 -254 2 -2 29 48 59 112 52 111 56 117 85 117 34 0 31 10 106 -293 l47 -187 28 82 c16 45 29 83 29 85 0 2 79 3 176 3 173 0 177 0 206 25 38 32 81 32 113 0 47 -46 25 -124 -39 -141 -26 -6 -86 19 -86 37 0 8 -46 9 -152 4 -84 -4 -154 -9 -156 -10 -2 -1 -23 -58 -47 -125 -24 -67 -48 -127 -53 -132 -6 -6 -22 -8 -35 -4 -23 5 -28 21 -76 213 -29 115 -57 226 -63 248 l-10 40 -58 -122 c-52 -110 -61 -123 -84 -123 -14 0 -29 8 -34 18 -5 9 -38 128 -73 264 -35 137 -66 248 -69 248 -3 0 -61 -150 -129 -332 -68 -183 -132 -341 -141 -352 -12 -12 -25 -16 -38 -12 -22 7 -23 10 -107 279 l-46 147 -88 0 c-71 0 -90 -3 -95 -15 -8 -21 -70 -46 -93 -38 -94 33 -79 163 18 163 21 0 44 -7 53 -15 11 -12 41 -15 134 -15 84 0 123 -4 130 -12 5 -7 32 -82 58 -166 26 -83 51 -149 55 -145 4 5 64 161 134 348 70 187 129 343 131 347 11 18 55 8 64 -14z"></path></g></g></svg>